<svg width="435" height="150" viewBox="0 0 435 150" fill="none" xmlns="http://www.w3.org/2000/svg">
<path d="M261.631 16.6598C261.363 11.5165 261.745 6.58968 267.932 6.27141C270.822 6.11863 275.902 7.70999 276.997 28.9833C278.384 55.5526 275.787 83.064 275.787 83.064C275.787 83.064 275.1 83.6624 273.725 83.7387C272.439 83.8024 270.644 83.4205 268.378 81.5236C266.023 79.5503 265.017 67.8506 264.342 54.9288C264.024 48.8307 263.769 42.4016 263.477 36.6218C263.018 27.8757 261.974 23.3308 261.631 16.6725V16.6598ZM119.643 30.8165C119.058 19.5752 122.202 14.9921 125.97 14.7884C129.102 14.6229 131.33 15.7941 132.17 16.3924C134.105 15.0048 136.639 14.0627 140.089 13.8845C151.254 13.2988 159.605 17.7801 160.28 30.7019C160.802 40.6575 158.052 57.4622 139.745 58.4171C137.734 58.5189 136.117 58.2006 134.869 57.5386L136.13 81.7782C136.41 87.2397 135.824 89.926 129.166 90.2697C122.66 90.6134 121.235 84.7318 120.636 73.4013C120.076 62.6437 120.904 49.1617 120.432 40.161C120.292 37.4366 119.834 34.8013 119.618 30.7911L119.643 30.8165ZM133.711 35.2341L134.526 50.9695C137.67 50.9695 137.479 52.0262 141.413 51.8225C145.347 51.6188 147.091 41.7905 146.633 33.1208C146.276 26.2207 144.507 20.0335 141.375 20.199C133.112 20.6318 135.48 29.1997 134.818 33.5027C134.755 33.8337 134.64 34.6358 133.698 35.2469L133.711 35.2341ZM40.0752 87.3543C40.5845 86.4377 40.8518 85.3046 40.8009 84.3371C40.7118 82.6566 39.6806 81.2562 37.4272 81.3708C33.3279 81.5872 34.5628 85.0628 27.1789 85.4447C22.1247 85.712 18.611 73.9742 17.287 60.925L18.0126 60.8868C20.5079 60.7595 25.3965 60.4285 31.6983 57.755C32.4876 57.3986 32.8314 56.4056 32.7805 55.4508C32.7295 54.4832 32.2839 53.6302 31.5456 53.4265C29.0121 52.5863 22.0101 52.7136 17.1979 52.9682L16.7905 52.9937C16.5359 46.5646 16.9305 40.2628 18.0508 35.5397C30.2343 34.5849 34.9702 32.7262 34.9702 32.7262C34.9702 32.7262 38.2165 31.5931 38.051 28.4613V28.3849C37.8855 26.8572 37.1981 25.9279 34.1299 25.686C25.0019 24.9603 17.0706 24.1583 9.20288 24.5657C7.67518 24.6421 7.21687 25.1513 7.33144 27.2391C0.724123 33.3754 -0.294346 52.5863 0.062118 59.4101C0.864163 74.9035 4.78527 92.9686 28.7066 91.7337C35.5303 91.3773 38.7385 89.6841 40.0752 87.3543ZM360.32 78.6591C361.721 79.1556 363.745 79.4485 365.985 79.3339C372.886 78.9774 382.548 74.3688 386.597 56.291C388.226 49.0471 388.481 42.9108 388.163 36.8128C387.692 27.8248 385.947 18.9768 385.324 6.93341C385.285 6.20775 384.394 -0.106761 377.087 0.275165C369.219 0.682553 369.015 10.5999 369.283 15.8959C369.716 24.2474 372.262 32.8917 372.796 43.1655C373.038 47.9014 372.72 69.6457 365.425 70.0276C359.964 70.3077 357.889 64.3878 356.323 63.7386C355.915 63.5985 355.508 63.5349 355.19 63.5603C353.344 63.6622 352.809 65.8519 352.618 66.8322C352.707 68.6781 354.26 76.724 360.32 78.6719V78.6591ZM203.514 27.5702H203.68C207.206 27.3792 215.405 25.5077 223.833 23.5345C223.884 27.5574 223.947 34.9541 224.405 43.9548C224.762 50.7021 225.309 58.3152 226.264 65.75C228.416 82.3002 232.935 84.1589 235.749 84.0061C239.924 83.7897 241.796 81.1926 241.554 76.5331C241.465 74.929 241.21 73.0066 240.599 70.626C237.773 59.6647 235.723 27.9012 231.688 21.663C238.6 20.0207 244.648 18.6585 247.296 18.5185H247.372C254.361 18.1493 257.671 16.8508 257.569 15.0048V14.9284C257.468 13.0824 256.742 8.29561 246.544 8.81758C226.71 9.84878 204.507 20.7464 199.109 23.9291L199.135 24.3238C199.262 26.819 201.324 27.672 203.489 27.5574L203.514 27.5702ZM165.844 80.1614C165.271 69.1619 167.129 55.3871 168.721 42.6562C170.796 25.4059 173.52 17.2072 176.652 13.9863C177.951 12.6368 179.618 12.1403 181.859 12.0258C183.145 11.9621 184.927 12.2676 187.333 13.668C192.82 17.0035 197.187 60.8105 201.986 74.076C202.839 76.444 203.17 78.3663 203.26 79.9704C203.463 83.9043 202.292 86.1449 198.04 86.3613C194.832 86.5268 189.561 84.3116 184.902 61.3706C182.495 61.4979 178.396 61.7143 174.781 61.6507L171.903 79.1047C171.28 82.6821 171.229 83.2423 168.899 83.3696C166.327 83.4969 165.894 81.269 165.831 80.1486L165.844 80.1614ZM175.939 54.6869C178.243 54.1649 180.166 53.9867 181.452 53.9103C182.737 53.8467 183.463 53.8849 183.463 53.8849C182.394 45.648 181.299 36.9273 180.599 29.8108C179.631 34.5339 178.358 40.8739 175.939 54.6869ZM293.279 48.0159C291.217 43.8529 289.931 39.3335 289.689 34.7631C289.002 21.5994 296.577 15.6541 301.886 15.374C307.831 15.0684 313.471 18.3912 313.942 27.3028C314.4 36.2144 309.155 42.1215 304.521 47.4303C309.104 55.0816 316.03 62.9365 322.662 68.2198C328.035 63.1147 328.748 55.2598 328.468 49.811L328.378 48.0414C325.514 47.0611 323.07 46.4628 321.3 46.5646C319.938 46.641 318.996 47.163 318.499 48.3979C318.079 49.5436 317.812 50.7658 317.876 51.8861C317.926 52.8537 318.207 53.643 318.321 54.2031C318.499 54.5978 318.512 54.8397 318.538 55.1579C318.576 55.96 317.952 56.3928 317.315 56.431C316.832 56.4565 316.348 56.3165 316.004 56.0109C314.833 55.107 313.916 53.0574 313.802 50.8931C313.713 49.289 314.031 47.6595 314.68 46.0936C315.877 42.8854 317.786 40.6957 320.294 39.6008C321.313 39.1425 322.51 38.837 323.795 38.7733C332.3 38.3277 338.487 45.6607 343.541 45.3934C344.343 45.3552 344.572 45.0242 344.61 44.2094C344.585 43.6492 344.725 43.3182 344.865 42.9872C345.081 42.4907 345.552 42.3889 346.596 42.2488C347.08 42.2234 348.175 43.0509 348.251 44.5786C348.442 48.2705 344.368 50.4984 340.918 50.6767C338.589 50.7913 336.157 50.3584 334.527 50.0401C334.693 59.2828 331.841 66.5139 327.602 71.6444C330.925 73.6432 333.967 74.7762 336.45 74.6489C337.417 74.598 338.105 75.451 338.143 76.3294C338.194 77.3733 337.456 78.4554 335.368 78.57C331.918 78.7483 327.755 77.7552 323.312 75.8965C318.983 79.3466 313.929 81.218 309.435 81.4472C297.15 82.0837 286.901 76.9787 286.278 64.948C285.947 58.608 289.295 53.1974 293.279 48.0032V48.0159ZM299.53 33.6046C299.619 35.2087 299.95 36.9655 300.523 38.786C303.439 34.5339 305.081 30.4219 304.788 24.8839C304.674 22.6306 304.126 19.8425 301.796 19.9698C299.314 20.0971 299.225 27.8248 299.53 33.6173V33.6046ZM296.793 62.8092C297.073 68.1052 298.423 73.9105 309.257 73.3504C311.828 73.2231 314.056 72.8539 316.042 72.1919C309.55 68.1816 303.07 62.6437 298.219 56.1382C297.201 58.2006 296.666 60.4031 296.793 62.8092ZM429.08 74.3561C425.871 74.5216 420.601 72.3064 415.941 49.3654C413.535 49.4927 409.436 49.7091 405.82 49.6455L402.943 67.0995C402.319 70.6769 402.268 71.237 399.939 71.3643C397.367 71.4917 396.934 69.2638 396.871 68.1434C396.298 57.144 398.156 43.3692 399.748 30.6383C401.823 13.388 404.547 5.18928 407.679 1.96837C408.978 0.618899 410.645 0.122395 412.886 0.00781697C414.172 -0.0558374 415.954 0.249703 418.36 1.6501C423.847 4.98559 428.214 48.7925 433.014 62.0581C433.866 64.426 434.197 66.3484 434.287 67.9525C434.49 71.8863 433.319 74.1142 429.067 74.3434L429.08 74.3561ZM414.516 41.8669C413.446 33.63 412.351 24.9094 411.651 17.7928C410.684 22.516 409.41 28.856 406.992 42.669C409.296 42.147 411.218 41.9688 412.504 41.8924C413.79 41.816 414.516 41.8669 414.516 41.8669ZM71.5969 119.449C71.8897 123.726 72.0934 128.093 72.2207 131.798C74.1685 131.008 77.0839 129.137 77.0839 124.898C77.0839 120.073 73.672 119.449 71.5969 119.449ZM304.075 102.835H303.413C303.999 105.992 303.999 110.69 303.999 117.043C303.999 120.696 304.088 123.854 304.088 126.438C304.088 128.602 304.05 130.346 303.833 131.798C311.268 130.588 311.816 122.326 311.816 115.999C311.816 110.27 310.568 102.822 304.088 102.822L304.075 102.835ZM334.006 101.091C332.631 101.091 332.007 101.422 331.383 101.753C331.841 104.834 332.007 109.697 332.007 115.795C332.21 116.126 332.592 116.546 334.706 116.546C336.819 116.546 337.825 113.262 337.825 109.735C337.825 105.585 336.45 101.091 334.006 101.091ZM75.3397 105.776C75.3397 101.906 72.1443 101.575 70.4766 101.537C70.5147 103.573 70.8076 108.017 71.1768 113.173C73.5447 112.511 75.327 109.722 75.327 105.776H75.3397ZM429.156 113.873C430.595 125.331 427.896 136.865 425.222 148.106C424.433 151.403 334.362 147.66 325.45 147.622C291.37 147.469 257.289 147.355 223.222 147.279C189.548 147.215 155.888 147.202 122.215 147.266C102.686 147.304 47.701 157.781 38.4075 134.153C33.888 122.632 43.5508 109.162 50.5782 100.875C52.8825 98.1628 55.3014 95.9986 57.8221 94.2926C56.9054 93.9616 55.8742 93.3633 54.7412 92.383C52.386 90.4097 51.4566 78.7864 50.7946 66.0301C50.4636 59.7665 50.209 53.261 49.9035 47.4048C49.4579 38.7351 48.414 34.2029 48.0702 27.6211C47.9047 24.4893 47.9556 17.6401 52.6915 17.3982C60.7247 16.9781 73.1882 30.7401 79.35 42.4143C81.7688 34.8013 93.2903 16.3288 97.135 16.1378C105.245 15.7177 106.645 24.171 107.001 30.842C107.32 36.9401 107.205 45.648 107.854 58.0097C108.593 72.1027 108.44 85.1137 103.666 90.4734C124.723 92.3703 145.945 91.7719 167.104 91.1608C241.885 89.0093 316.666 86.8578 391.447 84.6936C397.864 84.5026 404.484 84.3626 410.48 86.6796C421.25 90.8553 427.73 102.415 429.169 113.885L429.156 113.873ZM62.4179 91.721C72.4498 87.1634 83.9076 88.2964 96.1675 89.6841C94.5634 84.1461 93.5449 72.4465 92.8956 60.1357C92.4755 52.0262 92.2082 43.7511 92.0808 36.6727C88.1088 43.9675 83.653 52.65 81.3614 55.0179C80.5212 55.9473 78.7262 56.8512 77.1985 56.9275C75.518 57.0167 73.8757 55.0052 72.3607 50.5748C71.5078 48.2069 67.332 42.0579 63.2327 35.9216C63.3727 37.2074 63.4491 38.4805 63.5128 39.8554C64.5312 61.9562 62.9781 84.6045 62.4179 91.721ZM82.9528 123.816C82.9528 119.576 81.3742 115.375 77.0966 114.509C79.2099 113.096 80.8777 110.639 80.8777 106.4C80.8777 99.0795 75.4798 97.6663 71.355 97.6663C68.4905 97.6663 64.0347 98.1246 64.0347 101.702C64.0347 108.055 63.2072 130.996 63.2072 133.033C63.2072 135.07 64.7477 136.394 67.7012 136.394H68.1213C78.3824 136.228 82.9528 130.321 82.9528 123.803V123.816ZM113.036 108.653C113.036 99.7542 109.917 99.3468 108.542 99.3468C107.091 99.3468 105.805 100.391 105.805 103.09C105.805 103.51 105.805 104.006 105.894 104.503C106.021 105.419 106.059 106.578 106.059 107.915C106.059 109.659 105.97 111.696 105.856 113.86C103.488 125.241 99.5411 129.315 96.7149 129.939H96.5876C95.8365 129.939 95.5946 128.564 95.5946 126.413C95.5946 120.136 97.8861 107.049 97.8861 100.9C97.8861 99.907 94.5634 99.4868 92.7683 99.4868C90.5659 99.4868 89.7765 103.764 89.7765 103.764C89.7765 103.764 87.4468 113.071 87.4468 121.422C87.4468 128.195 88.9872 134.344 94.5506 134.344C100.114 134.344 103.284 130.028 105.27 125.165V127.113C105.27 130.105 105.474 132.307 106.187 132.931C107.6 134.178 108.516 134.637 109.14 134.637C109.56 134.637 109.891 134.433 110.184 134.14C110.973 133.351 112.641 122.046 113.01 110.041C113.01 109.544 113.049 109.124 113.049 108.666L113.036 108.653ZM142.381 113.389C142.381 100.34 130.744 98.3411 123.386 98.3411C122.8 98.0482 122.138 97.8827 121.311 97.8827C120.776 97.8827 120.267 97.9719 119.821 98.5066L118.154 98.7103C118.154 98.7103 117.988 99.0413 117.988 99.4996C117.988 99.9579 118.154 100.582 118.777 101.116C118.026 104.477 117.568 111.339 117.568 125.216V125.343C117.568 126.553 117.734 136.228 122.52 136.228C123.437 136.228 124.188 136.024 124.761 135.566C125.181 135.604 125.678 135.604 126.174 135.604C132.081 135.604 142.381 132.816 142.381 113.376V113.389ZM154.551 108.946C154.551 97.9337 151.98 96.9789 150.477 96.9789C147.282 96.9789 146.951 99.5123 146.951 102.173C146.951 105.623 147.371 107.991 147.371 112.523C147.371 115.515 147.333 118.838 147.333 121.995C147.333 128.691 147.537 134.751 148.708 135.833C149.828 136.877 150.745 137.119 151.407 137.119C152.107 137.119 152.489 136.826 152.489 136.826C152.489 136.826 154.564 122.695 154.564 108.946H154.551ZM190.962 105.33C190.962 101.88 190.465 97.4754 186.264 97.4754C184.265 97.4754 177.823 106.705 176.372 110.563C173.507 104.375 167.435 96.9279 163.285 96.9279C160.828 96.9279 160.624 100.454 160.624 102.084C160.624 105.496 161.044 107.864 161.044 112.345C161.044 115.375 161.006 118.749 161.006 121.982C161.006 128.59 161.171 134.611 162.33 135.693C163.45 136.776 164.405 137.017 165.067 137.017C165.767 137.017 166.149 136.725 166.149 136.725C166.149 136.725 168.186 122.593 168.262 108.793C168.262 108.093 168.262 107.418 168.224 106.756C170.172 110.041 172.171 113.325 172.553 114.573C173.215 116.903 174.004 117.985 174.882 117.985C175.672 117.985 176.627 117.565 177.085 117.106C178.332 115.948 180.866 111.581 183.107 107.927C182.979 111.581 182.903 115.871 182.903 120.06C182.903 128.908 183.323 137.183 184.812 137.183C189.968 137.183 190.669 128.742 190.669 119.36C190.669 112.956 190.962 108.475 190.962 105.318V105.33ZM222.33 110.766C222.33 99.2959 210.949 98.7612 208.785 98.7612C201.554 98.7612 196.359 105.076 196.359 122.784C196.359 133.3 202.05 135.375 206.62 135.375C210.491 135.375 214.221 134.255 216.678 131.505C219.415 128.513 222.33 122.53 222.33 110.766ZM353 88.5765C353 88.9457 353.369 90.2442 356.361 94.5218C357.188 95.6803 358.143 96.355 359.276 96.355C360.944 96.355 362.892 94.9037 365.222 91.4537C365.922 90.4097 366.176 89.4549 366.176 88.7929C366.176 88.1309 365.845 87.7999 365.26 87.7999C364.802 87.7999 364.216 88.0927 363.516 89.0475C362.803 90.0405 361.517 91.8356 359.645 93.5415C358.029 91.7592 355.33 87.7617 354.031 87.7617C353.369 87.889 352.987 88.0927 352.987 88.5892L353 88.5765ZM262.318 106.693C262.318 99.9961 258.117 97.4626 252.35 97.4626C250.567 97.4626 249.231 97.8828 248.199 98.5448C247.779 98.2138 246.659 97.5518 245.042 97.5518C243.094 97.5518 241.338 99.8433 241.338 105.661C241.338 107.736 241.503 109.111 241.503 110.525C241.503 115.184 240.714 122.122 240.714 127.686C240.714 133.542 241.299 136.623 244.66 136.623C248.021 136.623 248.48 135.248 248.48 132.422V119.869C249.103 120.238 249.931 120.455 250.975 120.455C260.447 120.455 262.318 111.849 262.318 106.693ZM290.746 110.766C290.746 99.2959 279.365 98.7612 277.2 98.7612C269.969 98.7612 264.775 105.076 264.775 122.784C264.775 133.3 270.466 135.375 275.036 135.375C278.906 135.375 282.636 134.255 285.094 131.505C287.831 128.513 290.746 122.53 290.746 110.766ZM319.836 113.389C319.836 100.34 308.2 98.3411 300.842 98.3411C300.256 98.0482 299.594 97.8827 298.766 97.8827C298.232 97.8827 297.723 97.9719 297.277 98.5066L295.609 98.7103C295.609 98.7103 295.444 99.0413 295.444 99.4996C295.444 99.9579 295.609 100.582 296.233 101.116C295.482 104.477 295.024 111.339 295.024 125.216V125.343C295.024 126.553 295.189 136.228 299.976 136.228C300.893 136.228 301.644 136.024 302.217 135.566C302.637 135.604 303.133 135.604 303.63 135.604C309.537 135.604 319.836 132.816 319.836 113.376V113.389ZM346.635 132.332C346.635 131.709 346.38 130.919 345.552 129.875C343.846 127.673 341.275 121.358 339.2 118.532C343.235 116.864 343.808 112.88 343.808 109.302C343.808 104.694 340.689 98.4556 334.337 98.4556C332.796 98.4556 331.51 98.5829 330.517 98.7484C330.39 98.5829 330.224 98.4556 330.059 98.4556C324.941 98.4556 324.534 100.327 324.241 115.706C324.152 121.231 323.872 125.178 323.872 128.004C323.872 131.034 324.368 135.439 328.531 135.439C330.237 135.439 331.485 134.446 331.485 134.446C331.485 134.446 331.854 127.176 331.981 119.156C332.643 119.283 333.433 119.322 334.387 119.322H334.884C335.508 121.613 336.959 126.26 339.123 130.461C340.791 133.784 342.37 134.573 343.528 134.573C344.687 134.573 346.647 133.746 346.647 132.332H346.635ZM366.342 101.537C366.342 101.116 365.553 98.3792 362.026 98.3792C358.945 98.3792 351.014 100.251 351.014 112.472C351.014 118.914 356.832 125.318 356.832 129.01C356.832 131.136 356.374 132.332 354.464 132.332C352.134 132.332 353.013 129.506 351.103 129.506C350.11 129.506 349.563 130.296 349.563 131.289C349.563 133.071 351.269 135.566 354.961 135.566C360.651 135.566 364.814 132.867 364.814 127.049C364.814 119.945 358.296 118.15 358.296 107.596C358.296 102.275 360.422 101.409 361.912 101.409C363.528 101.409 363.949 103.192 364.827 103.192C365.947 103.192 366.367 101.944 366.367 101.524L366.342 101.537ZM390.9 132.498C390.9 131.709 390.48 130.716 389.117 129.417C386.711 127.176 382.217 120.111 379.315 117.488C383.134 113.173 388.29 106.68 389.283 102.657C389.283 102.657 389.448 102.033 389.448 101.371C389.448 100.671 389.194 100.047 388.494 100.047C387.704 100.047 386.584 101.715 386.584 101.715C384.254 104.834 380.473 108.742 376.947 113.936C376.909 105.203 376.527 97.1826 375.203 97.1826C370.632 97.1826 369.97 105.623 369.97 115.006C369.97 121.448 369.716 125.891 369.716 129.099C369.716 132.014 370.008 136.954 373.751 136.954C375.292 136.954 376.45 135.795 376.45 135.795C376.45 135.795 376.705 130.015 376.87 122.912C378.283 125.534 380.282 128.819 382.523 131.811C384.687 134.726 386.342 135.553 387.552 135.553C389.003 135.553 390.913 133.937 390.913 132.523L390.9 132.498ZM412.3 133.287C412.3 132.46 412.173 131.454 411.804 130.206C409.678 123.23 408.608 100.493 405.859 98.6211C404.649 97.8318 403.732 97.6281 403.07 97.6281C401.912 97.6281 401.034 97.8318 400.333 98.5066C398.627 100.085 397.011 104.235 395.47 113.096C394.312 119.627 392.975 126.693 392.975 132.383C392.975 132.969 393.14 134.128 394.477 134.128C395.687 134.128 395.725 133.835 396.145 132.014L398.093 123.077C399.964 123.204 402.077 123.204 403.325 123.204C405.107 135.171 407.768 136.457 409.436 136.457C411.638 136.457 412.3 135.337 412.3 133.3V133.287ZM398.869 119.5C400.079 119.296 401.072 119.245 401.734 119.245C402.396 119.245 402.778 119.283 402.778 119.283C402.447 115.006 402.116 110.474 401.95 106.769C401.326 109.175 400.499 112.421 398.869 119.487V119.5ZM126.632 102.835H125.97C126.556 105.992 126.556 110.69 126.556 117.043C126.556 120.696 126.645 123.854 126.645 126.438C126.645 128.602 126.607 130.346 126.391 131.798C133.825 130.588 134.373 122.326 134.373 115.999C134.373 110.27 133.125 102.822 126.645 102.822L126.632 102.835ZM210.325 102.084C207.754 102.084 204.634 103.166 204.634 122.161C204.634 125.076 205.22 132.014 209.625 132.014C212.158 132.014 214.03 126.565 214.03 112.358C214.03 103.79 211.993 102.097 210.325 102.097V102.084ZM252.834 100.747C248.556 100.747 249.549 105.241 249.091 107.444C249.052 107.609 248.963 108.029 248.467 108.322V116.47C250.084 116.559 249.969 117.094 251.993 117.094C254.017 117.094 255.189 112.065 255.189 107.571C255.189 103.994 254.438 100.76 252.821 100.76L252.834 100.747ZM278.728 102.084C276.156 102.084 273.037 103.166 273.037 122.161C273.037 125.076 273.623 132.014 278.028 132.014C280.561 132.014 282.433 126.565 282.433 112.358C282.433 103.79 280.396 102.097 278.728 102.097V102.084Z" fill="white"/>
</svg>
