<svg width="27" height="27" viewBox="0 0 27 27" fill="none" xmlns="http://www.w3.org/2000/svg">
<path id="Instagram" fill-rule="evenodd" clip-rule="evenodd" d="M8.02793 0.24646C3.76594 0.24646 0.289062 3.72334 0.289062 7.98533V19.169C0.289062 23.431 3.76594 26.9079 8.02793 26.9079H19.2116C23.4736 26.9079 26.9505 23.431 26.9505 19.169V7.98533C26.9505 3.72334 23.4736 0.24646 19.2116 0.24646H8.02793ZM8.03 2.29741H19.2137C22.3661 2.29741 24.9017 4.82897 24.9017 7.9854V19.1691C24.9017 22.3215 22.3701 24.8571 19.2137 24.8571H8.03C4.87758 24.8571 2.34202 22.3255 2.34202 19.1691V7.9854C2.34202 4.83297 4.87357 2.29741 8.03 2.29741ZM21.3123 4.34826C20.4631 4.34826 19.7741 5.03722 19.7741 5.88642C19.7741 6.73561 20.4631 7.42458 21.3123 7.42458C22.1615 7.42458 22.8504 6.73561 22.8504 5.88642C22.8504 5.03722 22.1615 4.34826 21.3123 4.34826ZM13.6215 6.39918C9.66792 6.39918 6.4434 9.62371 6.4434 13.5773C6.4434 17.5308 9.66792 20.7553 13.6215 20.7553C17.575 20.7553 20.7996 17.5308 20.7996 13.5773C20.7996 9.62371 17.575 6.39918 13.6215 6.39918ZM13.6188 8.45002C16.4628 8.45002 18.746 10.7332 18.746 13.5772C18.746 16.4212 16.4628 18.7044 13.6188 18.7044C10.7748 18.7044 8.49161 16.4212 8.49161 13.5772C8.49161 10.7332 10.7748 8.45002 13.6188 8.45002Z" fill="#EE5A28"/>
</svg>
