<svg width="436" height="331" viewBox="0 0 436 331" fill="none" xmlns="http://www.w3.org/2000/svg">
<g clip-path="url(#clip0_10_1202)">
<path d="M41.6342 59.0469C64.1338 44.6029 91.3559 36.9589 116.414 26.4837C189.231 -3.94617 268.422 -4.0425 345.446 8.98938C378.043 14.4996 406.541 33.0687 418.537 57.9456C430.692 83.1581 432.639 112.3 432.247 139.469C431.77 172.948 442.471 208.786 424.033 241.036C406.45 271.799 370.652 289.863 334.101 302.33C297.866 314.684 259.614 326.316 220.507 329.167C182.221 331.951 143.219 325.488 107.083 319.222C91.7231 316.557 76.6823 318.045 62.4275 310.067C36.7875 295.7 23.8334 265.207 15.9873 242.54C4.56629 209.542 0.196234 174.788 0.4 140.264C0.58923 107.244 7.51675 80.952 41.6342 59.0563L41.6342 59.0469Z" fill="#BF2121"/>
<path d="M81.9372 160.902L81.812 115.345L87.474 115.33L87.5353 137.652L105.241 115.281L111.619 115.263L99.1016 131.047L115.454 160.81L108.881 160.828L95.2749 135.809L87.5564 145.332L87.5992 160.886L81.9372 160.902ZM136.42 161.533C132.84 161.543 129.812 160.868 127.335 159.508C124.858 158.126 122.868 156.299 121.365 154.025C119.862 151.729 118.759 149.194 118.058 146.419C117.377 143.645 117.034 140.847 117.026 138.027C117.018 135.207 117.347 132.407 118.011 129.629C118.698 126.85 119.787 124.32 121.277 122.038C122.768 119.734 124.748 117.895 127.217 116.522C129.686 115.127 132.711 114.424 136.29 114.414C139.891 114.405 142.93 115.09 145.407 116.472C147.884 117.832 149.874 119.66 151.377 121.955C152.88 124.229 153.972 126.753 154.652 129.528C155.332 132.303 155.676 135.1 155.684 137.921C155.692 140.741 155.363 143.54 154.698 146.319C154.033 149.097 152.956 151.638 151.465 153.942C149.974 156.224 147.994 158.063 145.525 159.458C143.056 160.831 140.021 161.523 136.42 161.533ZM136.405 156.196C138.921 156.189 141.035 155.63 142.746 154.519C144.456 153.408 145.83 151.951 146.866 150.148C147.924 148.322 148.678 146.346 149.128 144.219C149.599 142.07 149.832 139.976 149.827 137.937C149.82 135.702 149.576 133.512 149.093 131.365C148.631 129.197 147.866 127.236 146.799 125.482C145.752 123.706 144.371 122.3 142.654 121.263C140.938 120.205 138.821 119.679 136.305 119.686C133.81 119.693 131.707 120.252 129.996 121.363C128.285 122.474 126.901 123.942 125.843 125.767C124.807 127.571 124.053 129.547 123.582 131.696C123.11 133.845 122.877 135.95 122.883 138.011C122.889 140.245 123.134 142.446 123.617 144.614C124.1 146.761 124.865 148.711 125.911 150.465C126.979 152.22 128.371 153.615 130.088 154.652C131.804 155.688 133.91 156.203 136.405 156.196ZM163.008 160.679L162.883 115.122L168.61 115.107L188.874 147.461C189.201 148.003 189.517 148.544 189.823 149.086C190.128 149.627 190.444 150.212 190.771 150.84C190.748 150.276 190.714 149.712 190.669 149.149C190.646 148.585 190.633 148.042 190.632 147.522L190.543 115.046L196.205 115.031L196.33 160.587L190.863 160.602L170.273 128.118C169.99 127.62 169.685 127.1 169.358 126.559C169.053 126.017 168.747 125.476 168.442 124.934C168.487 125.411 168.521 125.932 168.544 126.496C168.567 127.06 168.58 127.602 168.581 128.123L168.671 160.663L163.008 160.679ZM222.755 161.296C219.306 161.305 216.376 160.641 213.964 159.302C211.552 157.964 209.606 156.169 208.124 153.917C206.643 151.643 205.551 149.108 204.849 146.311C204.169 143.514 203.825 140.673 203.817 137.788C203.809 134.925 204.149 132.104 204.835 129.325C205.543 126.524 206.643 123.983 208.133 121.701C209.624 119.419 211.561 117.603 213.943 116.251C216.347 114.878 219.242 114.186 222.626 114.177C225.424 114.169 227.79 114.564 229.723 115.362C231.678 116.159 233.264 117.185 234.482 118.44C235.722 119.673 236.68 120.972 237.357 122.337L232.287 124.954C231.569 123.893 230.785 122.952 229.937 122.129C229.088 121.286 228.078 120.627 226.905 120.153C225.732 119.679 224.311 119.444 222.64 119.449C220.211 119.455 218.162 120.014 216.495 121.125C214.827 122.236 213.486 123.693 212.472 125.497C211.479 127.3 210.757 129.276 210.308 131.425C209.88 133.574 209.669 135.69 209.674 137.772C209.681 140.028 209.936 142.24 210.441 144.408C210.946 146.576 211.732 148.537 212.8 150.292C213.868 152.024 215.217 153.409 216.847 154.446C218.498 155.461 220.463 155.965 222.741 155.959C225.257 155.952 227.273 155.415 228.789 154.348C230.304 153.259 231.58 151.856 232.617 150.14L237.829 152.078C237.052 153.772 235.994 155.315 234.653 156.707C233.311 158.099 231.655 159.21 229.683 160.04C227.733 160.87 225.424 161.288 222.755 161.296ZM244.143 160.456L244.018 114.899L271.092 114.825L271.106 120.162L249.695 120.22L249.733 134.213L263.856 134.174L263.87 139.511L249.748 139.549L249.791 155.039L272.634 154.976L272.649 160.377L244.143 160.456ZM279.404 160.359L279.279 114.802L297.241 114.753C300.885 114.743 303.751 115.364 305.837 116.617C307.945 117.869 309.435 119.492 310.308 121.486C311.203 123.457 311.654 125.517 311.659 127.665C311.664 129.465 311.311 131.245 310.6 133.004C309.911 134.742 308.787 136.274 307.229 137.602C305.67 138.929 303.623 139.857 301.086 140.384L310.903 160.272L304.525 160.29L295.1 140.791L285.012 140.819L285.066 160.343L279.404 160.359ZM284.998 135.548L297.428 135.513C299.554 135.508 301.234 135.123 302.469 134.361C303.725 133.598 304.612 132.63 305.129 131.457C305.668 130.284 305.936 129.069 305.933 127.81C305.93 126.682 305.677 125.522 305.175 124.331C304.694 123.117 303.834 122.1 302.596 121.279C301.357 120.436 299.62 120.018 297.386 120.024L284.955 120.058L284.998 135.548ZM327.922 160.226L327.812 120.071L315.121 120.106L315.106 114.704L346.15 114.619L346.165 120.02L333.474 120.055L333.584 160.21L327.922 160.226Z" fill="white"/>
<path d="M82.1783 106.636L82.0934 75.7604L85.9308 75.7498L85.9667 88.8057L100.522 88.7657L100.486 75.7098L104.324 75.6993L104.409 106.575L100.571 106.585L100.532 92.3825L85.9766 92.4225L86.0157 106.625L82.1783 106.636ZM121.709 107.056C119.18 107.063 117.098 106.599 115.464 105.662C113.829 104.726 112.612 103.354 111.814 101.548C111.015 99.7418 110.612 97.5449 110.604 94.9572L110.552 75.6822L114.389 75.6716L114.442 94.9467C114.449 97.6225 115.014 99.7088 116.135 101.205C117.271 102.702 119.126 103.447 121.699 103.44C123.331 103.435 124.683 103.123 125.754 102.502C126.841 101.867 127.647 100.924 128.172 99.6726C128.698 98.4067 128.959 96.8181 128.953 94.9068L128.9 75.6317L132.738 75.6212L132.791 94.8962C132.796 96.8958 132.566 98.6534 132.099 100.169C131.633 101.685 130.938 102.958 130.015 103.99C129.091 105.007 127.932 105.775 126.537 106.293C125.156 106.797 123.547 107.051 121.709 107.056ZM152.472 106.972L144.038 87.4993C143.816 86.9853 143.579 86.4273 143.328 85.8251C143.091 85.2083 142.883 84.6501 142.705 84.1507C142.751 84.5476 142.781 85.0768 142.798 85.7384C142.829 86.3852 142.845 86.9733 142.847 87.5026L142.899 106.469L139.062 106.479L138.977 75.604L142.594 75.5941L151.649 96.3441C151.782 96.6672 151.915 97.005 152.048 97.3575C152.182 97.71 152.315 98.0625 152.448 98.415C152.565 98.0765 152.689 97.738 152.821 97.3995C152.952 97.0462 153.091 96.693 153.237 96.3397L162.133 75.5404L165.794 75.5303L165.879 106.406L162.042 106.416L161.99 87.4499C161.988 86.9207 161.994 86.3252 162.007 85.6635C162.034 84.9871 162.055 84.4504 162.069 84.0534C161.894 84.5538 161.675 85.1278 161.412 85.7754C161.164 86.423 160.93 87.0118 160.711 87.5417L152.472 106.972ZM169.372 106.396L180.225 75.4907L183.798 75.4808L194.822 106.326L190.896 106.337L188.229 98.8018L175.967 98.8355L173.385 106.385L169.372 106.396ZM177.104 95.4361L187.029 95.4088L183.028 83.9958C182.924 83.702 182.805 83.3642 182.672 82.9823C182.553 82.5857 182.435 82.2037 182.316 81.8365C182.197 81.4545 182.108 81.1313 182.049 80.8668C181.976 81.1317 181.881 81.4554 181.765 81.838C181.663 82.2058 181.546 82.5884 181.415 82.9858C181.298 83.3683 181.189 83.7068 181.087 84.0011L177.104 95.4361ZM198.314 106.317L198.229 75.4412L202.111 75.4305L215.845 97.3585C216.066 97.7255 216.28 98.0925 216.487 98.4595C216.694 98.8265 216.908 99.2229 217.13 99.6486C217.114 99.2664 217.091 98.8842 217.061 98.502C217.045 98.1198 217.037 97.7522 217.036 97.3994L216.975 75.3896L220.812 75.3791L220.897 106.254L217.192 106.265L203.238 84.249C203.046 83.9114 202.839 83.5591 202.617 83.1921C202.41 82.8251 202.204 82.4581 201.997 82.0911C202.027 82.4145 202.05 82.7673 202.066 83.1495C202.082 83.5318 202.09 83.8993 202.091 84.2522L202.152 106.306L198.314 106.317ZM227.165 106.237L227.08 75.3619L230.918 75.3513L231.002 106.227L227.165 106.237ZM243.895 106.191L243.82 78.9768L235.219 79.0005L235.209 75.3395L256.248 75.2817L256.259 78.9426L247.658 78.9663L247.732 106.181L243.895 106.191ZM253.633 106.165L264.487 75.2591L268.059 75.2492L279.083 106.095L275.157 106.105L272.49 98.5702L260.228 98.6039L257.647 106.153L253.633 106.165ZM261.366 95.2045L271.29 95.1772L267.289 83.7642C267.185 83.4704 267.067 83.1326 266.933 82.7507C266.814 82.3541 266.696 81.9721 266.577 81.6049C266.458 81.2229 266.369 80.8997 266.31 80.6352C266.237 80.9001 266.142 81.2238 266.026 81.6064C265.924 81.9742 265.807 82.3568 265.676 82.7542C265.56 83.1367 265.45 83.4752 265.348 83.7695L261.366 95.2045ZM282.575 106.085L282.49 75.2096L294.664 75.1761C297.134 75.1693 299.076 75.5904 300.49 76.4392C301.918 77.2881 302.929 78.388 303.52 79.739C304.127 81.0753 304.432 82.4712 304.436 83.9267C304.439 85.1471 304.2 86.3533 303.718 87.5456C303.251 88.7231 302.489 89.7617 301.433 90.6615C300.377 91.5612 298.989 92.1899 297.27 92.5475L303.923 106.026L299.601 106.038L293.213 92.8233L286.376 92.8421L286.413 106.074L282.575 106.085ZM286.367 89.2694L294.791 89.2462C296.232 89.2423 297.371 88.9818 298.207 88.4649C299.059 87.948 299.66 87.2921 300.01 86.4972C300.376 85.7022 300.557 84.8784 300.555 84.0256C300.553 83.2611 300.382 82.475 300.041 81.6673C299.715 80.8448 299.133 80.1554 298.293 79.599C297.454 79.0279 296.277 78.7444 294.762 78.7486L286.338 78.7717L286.367 89.2694ZM309.703 106.01L309.618 75.135L313.5 75.1243L327.234 97.0524C327.455 97.4193 327.669 97.7863 327.876 98.1533C328.083 98.5203 328.297 98.9167 328.519 99.3425C328.503 98.9602 328.48 98.578 328.45 98.1959C328.434 97.8136 328.426 97.4461 328.425 97.0932L328.364 75.0835L332.202 75.0729L332.286 105.948L328.581 105.959L314.627 83.9428C314.435 83.6052 314.228 83.2529 314.006 82.886C313.8 82.519 313.593 82.152 313.386 81.785C313.416 82.1083 313.439 82.4611 313.455 82.8434C313.471 83.2256 313.479 83.5931 313.48 83.946L313.541 106L309.703 106.01ZM338.554 105.931L338.469 75.0557L342.307 75.0452L342.392 105.921L338.554 105.931Z" fill="white"/>
<path d="M80.8371 187.77L80.8326 186.156L90.5777 172.878L81.3504 172.903L81.3449 170.904L93.2947 170.871L93.2991 172.485L83.6022 185.762L93.3355 185.736L93.341 187.735L80.8371 187.77ZM95.0128 187.731L100.941 170.85L102.893 170.844L108.914 187.693L106.77 187.698L105.313 183.583L98.6153 183.601L97.2052 187.725L95.0128 187.731ZM99.2367 181.744L104.657 181.729L102.472 175.495C102.415 175.335 102.351 175.15 102.278 174.942C102.213 174.725 102.148 174.516 102.083 174.316C102.018 174.107 101.97 173.931 101.937 173.786C101.897 173.931 101.846 174.108 101.782 174.317C101.726 174.518 101.663 174.727 101.591 174.944C101.527 175.153 101.468 175.338 101.412 175.498L99.2367 181.744ZM122.118 187.945L117.511 177.309C117.39 177.028 117.261 176.724 117.123 176.395C116.994 176.058 116.881 175.753 116.783 175.48C116.808 175.697 116.825 175.986 116.834 176.347C116.851 176.701 116.86 177.022 116.861 177.311L116.889 187.671L114.793 187.676L114.747 170.812L116.722 170.806L121.668 182.14C121.741 182.317 121.814 182.501 121.887 182.694C121.96 182.886 122.032 183.079 122.105 183.271C122.169 183.087 122.237 182.902 122.309 182.717C122.38 182.524 122.456 182.331 122.536 182.138L127.395 170.777L129.395 170.772L129.441 187.636L127.345 187.642L127.317 177.282C127.316 176.993 127.319 176.668 127.326 176.306C127.341 175.937 127.353 175.644 127.36 175.427C127.264 175.7 127.145 176.014 127.001 176.368C126.866 176.721 126.738 177.043 126.618 177.332L122.118 187.945ZM132.858 187.627L132.811 170.762L142.834 170.735L142.839 172.71L134.913 172.732L134.927 177.912L140.155 177.897L140.161 179.873L134.933 179.887L134.948 185.621L143.405 185.598L143.41 187.598L132.858 187.627ZM145.911 187.591L145.865 170.726L147.985 170.72L155.486 182.698C155.607 182.898 155.724 183.099 155.837 183.299C155.95 183.5 156.067 183.716 156.188 183.949C156.18 183.74 156.167 183.531 156.151 183.322C156.142 183.114 156.137 182.913 156.137 182.72L156.104 170.698L158.2 170.692L158.246 187.557L156.223 187.563L148.6 175.537C148.495 175.353 148.382 175.16 148.261 174.96C148.148 174.759 148.035 174.559 147.922 174.359C147.939 174.535 147.952 174.728 147.96 174.937C147.969 175.145 147.973 175.346 147.974 175.539L148.007 187.585L145.911 187.591ZM165.284 187.538L165.243 172.673L160.545 172.686L160.539 170.686L172.031 170.654L172.037 172.654L167.339 172.667L167.38 187.532L165.284 187.538ZM170.603 187.523L176.531 170.642L178.483 170.637L184.504 187.485L182.36 187.491L180.903 183.375L174.205 183.393L172.795 187.517L170.603 187.523ZM174.826 181.536L180.247 181.522L178.062 175.288C178.005 175.127 177.94 174.943 177.868 174.734C177.803 174.517 177.738 174.309 177.673 174.108C177.608 173.9 177.56 173.723 177.527 173.579C177.487 173.723 177.436 173.9 177.372 174.109C177.316 174.31 177.253 174.519 177.181 174.736C177.117 174.945 177.058 175.13 177.002 175.291L174.826 181.536ZM186.412 187.48L186.365 170.615L188.461 170.609L188.502 185.45L196.79 185.427L196.795 187.451L186.412 187.48ZM198.665 187.446L198.618 170.581L200.739 170.575L208.24 182.553C208.361 182.753 208.478 182.954 208.591 183.154C208.704 183.355 208.821 183.571 208.942 183.804C208.934 183.595 208.921 183.386 208.904 183.177C208.896 182.969 208.891 182.768 208.891 182.575L208.858 170.553L210.954 170.547L211 187.412L208.976 187.418L201.354 175.392C201.249 175.208 201.136 175.015 201.015 174.815C200.902 174.614 200.789 174.414 200.676 174.214C200.693 174.39 200.705 174.583 200.714 174.792C200.723 175 200.727 175.201 200.728 175.394L200.761 187.44L198.665 187.446ZM220.857 187.674C219.532 187.678 218.411 187.428 217.494 186.924C216.577 186.413 215.841 185.736 215.284 184.895C214.728 184.045 214.32 183.106 214.06 182.079C213.808 181.052 213.681 180.016 213.678 178.972C213.675 177.928 213.796 176.892 214.043 175.863C214.297 174.835 214.7 173.898 215.252 173.053C215.803 172.2 216.536 171.52 217.45 171.011C218.365 170.495 219.484 170.235 220.809 170.231C222.142 170.227 223.267 170.481 224.184 170.993C225.101 171.496 225.838 172.173 226.394 173.023C226.951 173.864 227.355 174.799 227.607 175.826C227.858 176.853 227.986 177.889 227.989 178.933C227.991 179.977 227.87 181.013 227.624 182.042C227.378 183.07 226.979 184.011 226.427 184.864C225.875 185.709 225.142 186.389 224.228 186.906C223.314 187.414 222.19 187.67 220.857 187.674ZM220.852 185.698C221.783 185.696 222.566 185.489 223.199 185.078C223.832 184.666 224.341 184.127 224.724 183.459C225.116 182.784 225.395 182.052 225.562 181.265C225.736 180.469 225.822 179.694 225.82 178.939C225.818 178.112 225.727 177.301 225.549 176.506C225.378 175.704 225.095 174.978 224.699 174.328C224.312 173.671 223.801 173.15 223.165 172.766C222.53 172.375 221.746 172.18 220.815 172.183C219.891 172.185 219.113 172.392 218.479 172.803C217.846 173.215 217.334 173.758 216.942 174.434C216.558 175.101 216.279 175.833 216.105 176.629C215.93 177.424 215.844 178.203 215.846 178.966C215.848 179.793 215.939 180.608 216.118 181.411C216.297 182.205 216.58 182.927 216.967 183.577C217.362 184.226 217.878 184.743 218.513 185.127C219.149 185.51 219.928 185.701 220.852 185.698ZM234.44 187.348L234.436 185.733L244.181 172.456L234.953 172.481L234.948 170.481L246.898 170.449L246.902 172.063L237.205 185.34L246.939 185.314L246.944 187.313L234.44 187.348ZM249.748 187.305L249.702 170.441L254.303 170.428C255.749 170.424 256.97 170.662 257.968 171.141C258.973 171.62 259.782 172.264 260.394 173.074C261.007 173.875 261.451 174.777 261.727 175.78C262.01 176.775 262.154 177.795 262.157 178.839C262.159 179.811 262.034 180.791 261.779 181.779C261.525 182.768 261.098 183.68 260.498 184.517C259.906 185.346 259.101 186.015 258.082 186.524C257.064 187.032 255.787 187.289 254.253 187.293L249.748 187.305ZM251.839 185.348L254.513 185.341C255.565 185.338 256.44 185.147 257.138 184.768C257.843 184.38 258.404 183.873 258.82 183.245C259.244 182.609 259.543 181.91 259.718 181.147C259.9 180.375 259.99 179.608 259.988 178.845C259.986 178.026 259.884 177.231 259.681 176.461C259.486 175.682 259.175 174.984 258.747 174.367C258.328 173.75 257.789 173.262 257.129 172.902C256.47 172.534 255.674 172.352 254.742 172.354L251.803 172.362L251.839 185.348ZM264.848 187.264L264.802 170.399L271.451 170.381C272.801 170.377 273.861 170.607 274.634 171.071C275.414 171.535 275.966 172.135 276.289 172.873C276.62 173.603 276.787 174.366 276.789 175.161C276.791 175.827 276.66 176.486 276.397 177.137C276.142 177.781 275.726 178.348 275.149 178.839C274.572 179.331 273.814 179.674 272.875 179.87L276.509 187.232L274.148 187.238L270.659 180.02L266.924 180.031L266.944 187.258L264.848 187.264ZM266.919 178.079L271.521 178.066C272.308 178.064 272.93 177.922 273.387 177.64C273.852 177.357 274.18 176.999 274.372 176.565C274.571 176.131 274.67 175.681 274.669 175.215C274.668 174.797 274.574 174.368 274.388 173.927C274.211 173.477 273.892 173.101 273.434 172.797C272.975 172.485 272.332 172.33 271.505 172.332L266.903 172.345L266.919 178.079ZM277.922 187.228L283.851 170.347L285.802 170.342L291.823 187.19L289.679 187.196L288.222 183.08L281.525 183.098L280.114 187.222L277.922 187.228ZM282.146 181.241L287.567 181.227L285.381 174.993C285.324 174.832 285.26 174.648 285.187 174.439C285.122 174.222 285.057 174.014 284.992 173.813C284.928 173.605 284.879 173.428 284.846 173.284C284.807 173.428 284.755 173.605 284.691 173.814C284.636 174.015 284.572 174.224 284.5 174.441C284.437 174.65 284.377 174.835 284.321 174.996L282.146 181.241ZM296.614 187.177L290.786 170.328L293.027 170.322L297.083 182.501C297.156 182.726 297.237 182.991 297.327 183.296C297.424 183.593 297.513 183.898 297.594 184.211C297.666 183.897 297.741 183.596 297.82 183.307C297.908 183.017 297.992 182.748 298.071 182.499L301.941 170.297L304.181 170.291L298.47 187.172L296.614 187.177ZM306.078 187.151L306.032 170.286L308.128 170.28L308.169 185.121L316.457 185.098L316.462 187.122L306.078 187.151ZM321.748 187.397C320.535 187.4 319.527 187.142 318.722 186.622C317.917 186.094 317.301 185.345 316.873 184.374L318.605 183.478C318.936 184.128 319.327 184.617 319.777 184.945C320.236 185.265 320.899 185.423 321.766 185.421C322.168 185.42 322.557 185.367 322.934 185.261C323.312 185.148 323.652 184.954 323.957 184.68C324.269 184.406 324.513 184.024 324.688 183.534C324.872 183.035 324.962 182.401 324.96 181.63L324.929 170.234L327.025 170.228L327.056 181.552C327.059 182.716 326.897 183.676 326.57 184.432C326.251 185.188 325.823 185.783 325.286 186.218C324.757 186.646 324.184 186.948 323.566 187.127C322.948 187.305 322.342 187.395 321.748 187.397ZM330.514 187.084L330.468 170.219L340.49 170.191L340.496 172.167L332.569 172.189L332.583 177.369L337.812 177.354L337.817 179.33L332.589 179.344L332.605 185.078L341.061 185.055L341.067 187.054L330.514 187.084Z" fill="white"/>
<path d="M83.2382 224.962L83.162 197.24L90.7263 197.219C93.1025 197.213 95.1101 197.603 96.7492 198.391C98.4015 199.178 99.7312 200.237 100.738 201.568C101.745 202.885 102.475 204.368 102.929 206.017C103.395 207.653 103.631 209.329 103.635 211.045C103.64 212.642 103.433 214.253 103.015 215.878C102.597 217.503 101.895 219.003 100.909 220.379C99.9355 221.741 98.6118 222.841 96.9375 223.677C95.2633 224.513 93.1654 224.935 90.644 224.942L83.2382 224.962ZM86.6749 221.745L91.0709 221.733C92.8002 221.728 94.2383 221.414 95.3851 220.79C96.545 220.153 97.4668 219.319 98.1504 218.288C98.8472 217.243 99.3391 216.093 99.6261 214.838C99.9262 213.57 100.075 212.309 100.071 211.055C100.067 209.708 99.8988 208.402 99.5653 207.135C99.245 205.856 98.7336 204.709 98.0311 203.694C97.3419 202.679 96.4552 201.877 95.371 201.285C94.2869 200.681 92.9791 200.381 91.4478 200.385L86.6162 200.399L86.6749 221.745ZM112.438 225.357C110.445 225.363 108.787 224.938 107.464 224.084C106.142 223.216 105.128 221.985 104.424 220.389L107.272 218.916C107.816 219.984 108.458 220.787 109.199 221.326C109.953 221.852 111.043 222.113 112.469 222.11C113.129 222.108 113.769 222.02 114.389 221.847C115.009 221.66 115.569 221.342 116.069 220.892C116.583 220.441 116.984 219.813 117.272 219.007C117.573 218.188 117.722 217.145 117.719 215.877L117.667 197.145L121.113 197.136L121.164 215.749C121.169 217.663 120.903 219.242 120.365 220.484C119.84 221.726 119.137 222.705 118.254 223.42C117.385 224.122 116.442 224.62 115.427 224.913C114.411 225.206 113.415 225.354 112.438 225.357ZM126.848 224.842L126.772 197.12L143.247 197.075L143.256 200.322L130.226 200.358L130.25 208.873L138.844 208.849L138.853 212.097L130.259 212.12L130.285 221.546L144.185 221.508L144.194 224.795L126.848 224.842ZM157.675 225.233C155.576 225.239 153.793 224.834 152.325 224.02C150.858 223.205 149.673 222.113 148.772 220.742C147.87 219.359 147.206 217.816 146.779 216.114C146.365 214.412 146.156 212.684 146.151 210.928C146.146 209.185 146.352 207.469 146.77 205.778C147.201 204.074 147.87 202.527 148.777 201.139C149.684 199.75 150.863 198.645 152.313 197.822C153.776 196.986 155.537 196.566 157.596 196.56C159.299 196.555 160.739 196.796 161.915 197.281C163.104 197.766 164.07 198.39 164.811 199.154C165.566 199.904 166.149 200.695 166.56 201.525L163.476 203.118C163.038 202.472 162.561 201.899 162.045 201.399C161.529 200.886 160.914 200.485 160.2 200.196C159.487 199.908 158.622 199.765 157.605 199.768C156.127 199.772 154.88 200.112 153.865 200.788C152.851 201.464 152.035 202.351 151.417 203.448C150.813 204.546 150.374 205.748 150.1 207.056C149.84 208.363 149.712 209.651 149.715 210.918C149.719 212.291 149.874 213.637 150.182 214.956C150.489 216.276 150.967 217.469 151.617 218.537C152.267 219.591 153.088 220.434 154.08 221.064C155.084 221.682 156.28 221.989 157.666 221.985C159.197 221.981 160.424 221.654 161.347 221.005C162.269 220.342 163.045 219.489 163.676 218.444L166.848 219.623C166.375 220.654 165.731 221.594 164.915 222.441C164.099 223.288 163.091 223.964 161.891 224.469C160.704 224.974 159.299 225.228 157.675 225.233ZM170.69 224.722L170.614 196.999L187.089 196.954L187.098 200.202L174.068 200.237L174.092 208.752L182.686 208.729L182.695 211.976L174.101 212L174.127 221.425L188.027 221.387L188.036 224.674L170.69 224.722ZM199.758 224.642L199.682 196.92L203.128 196.91L203.204 224.632L199.758 224.642ZM228.375 225.038L220.802 207.554C220.603 207.093 220.391 206.592 220.165 206.051C219.952 205.497 219.766 204.996 219.606 204.548C219.647 204.904 219.674 205.379 219.689 205.973C219.717 206.554 219.732 207.082 219.733 207.557L219.78 224.587L216.335 224.596L216.258 196.874L219.506 196.865L227.636 215.496C227.756 215.786 227.875 216.089 227.995 216.406C228.115 216.722 228.234 217.039 228.354 217.355C228.459 217.052 228.57 216.748 228.688 216.444C228.806 216.126 228.931 215.809 229.062 215.492L237.05 196.817L240.337 196.808L240.413 224.53L236.968 224.54L236.921 207.51C236.92 207.035 236.925 206.5 236.936 205.906C236.961 205.299 236.98 204.817 236.992 204.461C236.835 204.91 236.638 205.425 236.402 206.007C236.179 206.588 235.969 207.117 235.773 207.593L228.375 225.038ZM246.029 224.515L245.953 196.792L249.399 196.783L249.466 221.179L263.089 221.141L263.098 224.468L246.029 224.515ZM265.006 224.463L274.751 196.713L277.959 196.704L287.857 224.4L284.332 224.409L281.938 217.644L270.928 217.674L268.61 224.453L265.006 224.463ZM271.949 214.622L280.86 214.597L277.267 204.35C277.174 204.086 277.068 203.783 276.948 203.44C276.842 203.084 276.735 202.741 276.628 202.411C276.522 202.068 276.442 201.778 276.388 201.54C276.323 201.778 276.238 202.069 276.133 202.412C276.042 202.743 275.937 203.086 275.819 203.443C275.715 203.786 275.617 204.09 275.525 204.355L271.949 214.622ZM290.993 224.391L290.917 196.669L298.481 196.648C300.857 196.642 302.865 197.032 304.504 197.82C306.156 198.607 307.486 199.666 308.493 200.997C309.5 202.314 310.23 203.797 310.683 205.446C311.15 207.082 311.385 208.758 311.39 210.474C311.394 212.071 311.188 213.682 310.77 215.307C310.352 216.932 309.65 218.432 308.663 219.808C307.69 221.17 306.366 222.27 304.692 223.106C303.018 223.942 300.92 224.364 298.399 224.371L290.993 224.391ZM294.43 221.174L298.825 221.162C300.555 221.157 301.993 220.843 303.14 220.219C304.3 219.582 305.221 218.748 305.905 217.717C306.602 216.672 307.094 215.522 307.381 214.267C307.681 212.999 307.829 211.738 307.826 210.484C307.822 209.137 307.653 207.831 307.32 206.564C307 205.285 306.488 204.137 305.786 203.123C305.096 202.108 304.21 201.306 303.126 200.714C302.042 200.11 300.734 199.81 299.202 199.814L294.371 199.828L294.43 221.174ZM315.814 224.323L315.738 196.601L319.184 196.591L319.26 224.313L315.814 224.323ZM324.895 224.298L324.819 196.576L328.265 196.566L328.297 208.289L341.366 208.253L341.334 196.53L344.779 196.521L344.855 224.243L341.41 224.253L341.375 211.5L328.306 211.536L328.341 224.288L324.895 224.298Z" fill="white"/>
<path d="M82.8047 232.296L345.783 231.573" stroke="white" stroke-width="0.933301"/>
<path d="M91.0324 253.025C90.3157 253.027 89.6866 252.904 89.1453 252.656C88.604 252.409 88.1505 252.061 87.7848 251.612C87.4252 251.164 87.1535 250.642 86.9696 250.047C86.7918 249.446 86.7019 248.797 86.7 248.098C86.6964 246.786 86.9603 245.558 87.4917 244.415C88.0231 243.265 88.7888 242.288 89.7889 241.484C90.795 240.673 92.0053 240.12 93.4198 239.825L93.4237 241.228C92.671 241.406 91.9611 241.715 91.2941 242.154C90.6271 242.587 90.0546 243.123 89.5765 243.762C89.1044 244.401 88.7814 245.11 88.6074 245.888C88.8799 245.577 89.2558 245.327 89.7351 245.138C90.2145 244.942 90.767 244.843 91.3926 244.842C92.1276 244.84 92.7872 245.02 93.3713 245.383C93.9555 245.74 94.4154 246.221 94.7512 246.828C95.093 247.434 95.2649 248.105 95.2669 248.84C95.2692 249.648 95.0859 250.368 94.7171 251.001C94.3483 251.628 93.8424 252.121 93.1995 252.481C92.5627 252.841 91.8403 253.023 91.0324 253.025ZM91.0101 251.531C91.5386 251.529 92.003 251.422 92.4033 251.208C92.8097 250.988 93.1247 250.683 93.3484 250.294C93.5721 249.905 93.6832 249.452 93.6818 248.936C93.6796 248.14 93.4318 247.506 92.9385 247.033C92.4452 246.555 91.7976 246.317 90.9958 246.319C90.4734 246.32 90.009 246.431 89.6026 246.651C89.1962 246.864 88.8782 247.169 88.6484 247.564C88.4187 247.96 88.3045 248.422 88.306 248.95C88.3074 249.467 88.4271 249.919 88.6651 250.307C88.903 250.695 89.2258 250.998 89.6334 251.215C90.041 251.427 90.4999 251.532 91.0101 251.531ZM98.6536 253.022C98.3012 253.023 98.0033 252.899 97.7596 252.651C97.5159 252.403 97.3937 252.114 97.3928 251.786C97.3919 251.458 97.5125 251.166 97.7548 250.911C97.9971 250.655 98.2944 250.526 98.6467 250.525C99.0051 250.525 99.3061 250.651 99.5498 250.906C99.7995 251.16 99.9249 251.451 99.9258 251.779C99.9267 252.107 99.8029 252.396 99.5546 252.646C99.3123 252.896 99.0119 253.021 98.6536 253.022ZM112.283 252.966C111.542 252.968 110.871 252.849 110.269 252.607C109.667 252.36 109.155 252.024 108.735 251.6C108.321 251.17 108.019 250.682 107.829 250.136L109.322 249.585C109.578 250.149 109.965 250.607 110.483 250.958C111.006 251.302 111.617 251.474 112.316 251.472C113.081 251.47 113.691 251.286 114.145 250.92C114.6 250.548 114.826 250.013 114.824 249.315C114.823 248.823 114.685 248.41 114.411 248.077C114.137 247.743 113.781 247.465 113.343 247.241C112.905 247.012 112.436 246.807 111.938 246.626C111.494 246.463 111.05 246.282 110.606 246.083C110.162 245.883 109.757 245.648 109.392 245.375C109.033 245.097 108.744 244.76 108.524 244.366C108.304 243.966 108.193 243.489 108.192 242.937C108.19 242.366 108.344 241.843 108.652 241.368C108.961 240.887 109.406 240.504 109.989 240.216C110.571 239.923 111.275 239.776 112.101 239.773C112.775 239.771 113.368 239.87 113.879 240.069C114.396 240.262 114.819 240.531 115.147 240.877C115.483 241.216 115.714 241.604 115.843 242.041L114.387 242.537C114.234 242.179 113.954 241.876 113.546 241.628C113.144 241.374 112.628 241.248 111.996 241.25C111.322 241.252 110.791 241.402 110.403 241.701C110.021 241.999 109.831 242.41 109.832 242.932C109.833 243.327 109.962 243.658 110.217 243.924C110.479 244.185 110.82 244.412 111.24 244.605C111.659 244.798 112.109 244.985 112.59 245.166C113.04 245.335 113.49 245.528 113.94 245.745C114.396 245.957 114.813 246.217 115.19 246.526C115.574 246.834 115.882 247.213 116.114 247.662C116.346 248.105 116.463 248.642 116.464 249.274C116.467 250.057 116.286 250.723 115.923 251.271C115.56 251.818 115.063 252.239 114.432 252.532C113.801 252.819 113.085 252.964 112.283 252.966ZM121.385 252.723L116.976 239.979L118.671 239.974L121.739 249.186C121.794 249.356 121.856 249.557 121.923 249.787C121.997 250.012 122.064 250.242 122.126 250.479C122.18 250.242 122.237 250.014 122.297 249.795C122.363 249.576 122.426 249.373 122.487 249.184L125.413 239.955L127.108 239.951L122.788 252.719L121.385 252.723ZM128.881 252.702L128.846 239.946L130.431 239.942L130.466 252.698L128.881 252.702ZM133.059 252.691L133.024 239.934L137.544 239.922C138.552 239.919 139.345 240.081 139.923 240.408C140.501 240.728 140.912 241.146 141.157 241.662C141.401 242.177 141.524 242.717 141.526 243.282C141.527 243.866 141.365 244.391 141.038 244.86C140.711 245.329 140.251 245.691 139.656 245.948C140.148 246.099 140.568 246.322 140.915 246.619C141.268 246.909 141.537 247.258 141.72 247.665C141.903 248.071 141.996 248.517 141.997 249.003C141.998 249.434 141.929 249.866 141.791 250.298C141.652 250.729 141.423 251.125 141.102 251.484C140.787 251.843 140.362 252.133 139.828 252.353C139.301 252.567 138.648 252.675 137.87 252.677L133.059 252.691ZM134.641 251.228L138.049 251.219C138.674 251.217 139.16 251.113 139.506 250.905C139.851 250.698 140.09 250.433 140.223 250.111C140.362 249.788 140.431 249.457 140.43 249.117C140.429 248.71 140.346 248.327 140.181 247.969C140.016 247.611 139.717 247.324 139.286 247.106C138.86 246.883 138.249 246.772 137.453 246.774L134.629 246.782L134.641 251.228ZM134.625 245.342L137.249 245.335C138.154 245.333 138.831 245.146 139.279 244.774C139.734 244.402 139.96 243.912 139.958 243.305C139.958 242.995 139.896 242.692 139.774 242.394C139.657 242.091 139.432 241.842 139.097 241.649C138.763 241.456 138.277 241.36 137.639 241.361L134.614 241.37L134.625 245.342ZM144.018 252.66L143.983 239.904L145.587 239.9L151.261 248.959C151.352 249.111 151.441 249.263 151.526 249.414C151.612 249.566 151.7 249.73 151.792 249.906C151.785 249.748 151.776 249.59 151.763 249.432C151.757 249.274 151.753 249.122 151.753 248.976L151.728 239.883L153.313 239.879L153.348 252.635L151.818 252.639L146.052 243.543C145.973 243.404 145.888 243.258 145.796 243.107C145.711 242.955 145.625 242.803 145.54 242.652C145.552 242.785 145.562 242.931 145.568 243.089C145.575 243.247 145.578 243.399 145.579 243.545L145.604 252.656L144.018 252.66ZM158.237 252.84C157.32 252.843 156.557 252.647 155.949 252.254C155.34 251.855 154.874 251.288 154.55 250.554L155.86 249.876C156.11 250.368 156.406 250.737 156.747 250.985C157.094 251.227 157.595 251.348 158.251 251.346C158.555 251.345 158.85 251.305 159.135 251.225C159.42 251.139 159.678 250.993 159.908 250.785C160.144 250.578 160.329 250.289 160.461 249.918C160.6 249.541 160.669 249.061 160.667 248.478L160.643 239.859L162.229 239.854L162.252 248.419C162.255 249.3 162.132 250.026 161.885 250.598C161.643 251.169 161.32 251.62 160.914 251.949C160.514 252.272 160.08 252.501 159.612 252.636C159.145 252.771 158.687 252.839 158.237 252.84ZM163.317 252.607L167.802 239.839L169.278 239.835L173.832 252.579L172.21 252.583L171.108 249.47L166.042 249.484L164.976 252.603L163.317 252.607ZM166.512 248.079L170.612 248.068L168.959 243.353C168.916 243.231 168.868 243.092 168.812 242.934C168.763 242.77 168.714 242.612 168.665 242.461C168.616 242.303 168.579 242.169 168.555 242.06C168.525 242.169 168.486 242.303 168.438 242.461C168.395 242.613 168.347 242.771 168.293 242.935C168.245 243.094 168.2 243.233 168.158 243.355L166.512 248.079ZM175.419 255.144L174.89 254.872C174.999 254.774 175.129 254.625 175.281 254.424C175.438 254.229 175.577 253.998 175.698 253.731C175.819 253.463 175.888 253.174 175.905 252.864C175.553 252.847 175.252 252.726 175.002 252.502C174.752 252.278 174.627 251.993 174.626 251.647C174.625 251.252 174.746 250.939 174.988 250.707C175.23 250.47 175.515 250.351 175.843 250.35C176.202 250.349 176.521 250.478 176.801 250.739C177.087 250.999 177.231 251.403 177.233 251.95C177.234 252.417 177.153 252.855 176.99 253.262C176.834 253.67 176.616 254.032 176.337 254.348C176.065 254.671 175.759 254.936 175.419 255.144ZM182.19 252.556L182.155 239.799L183.741 239.795L183.758 246.046L188.716 239.781L190.502 239.776L186.997 244.196L191.575 252.53L189.735 252.535L185.925 245.529L183.764 248.196L183.776 252.551L182.19 252.556ZM193.274 252.525L193.239 239.769L196.719 239.759C197.813 239.756 198.736 239.936 199.491 240.298C200.251 240.661 200.863 241.148 201.326 241.76C201.789 242.367 202.125 243.049 202.334 243.808C202.549 244.56 202.657 245.332 202.659 246.121C202.661 246.856 202.566 247.598 202.374 248.345C202.182 249.093 201.858 249.783 201.405 250.416C200.957 251.043 200.348 251.549 199.577 251.934C198.807 252.319 197.842 252.513 196.681 252.516L193.274 252.525ZM194.855 251.045L196.878 251.039C197.674 251.037 198.335 250.892 198.863 250.605C199.397 250.312 199.821 249.929 200.135 249.454C200.456 248.973 200.682 248.444 200.814 247.867C200.953 247.283 201.021 246.703 201.019 246.126C201.018 245.506 200.94 244.905 200.786 244.322C200.639 243.733 200.404 243.206 200.081 242.739C199.763 242.272 199.355 241.902 198.857 241.63C198.358 241.352 197.756 241.214 197.051 241.216L194.828 241.222L194.855 251.045ZM208.162 252.484L208.127 239.728L209.712 239.724L209.743 250.949L216.012 250.932L216.016 252.463L208.162 252.484ZM217.43 252.459L217.395 239.703L218.98 239.698L219.015 252.454L217.43 252.459ZM225.398 252.655C224.657 252.657 223.985 252.538 223.383 252.297C222.781 252.049 222.27 251.713 221.85 251.289C221.435 250.859 221.133 250.371 220.943 249.825L222.436 249.274C222.693 249.838 223.08 250.296 223.597 250.647C224.121 250.992 224.732 251.163 225.43 251.161C226.195 251.159 226.805 250.975 227.26 250.609C227.715 250.238 227.941 249.702 227.939 249.004C227.938 248.512 227.8 248.099 227.526 247.766C227.251 247.432 226.895 247.154 226.457 246.93C226.019 246.701 225.551 246.496 225.052 246.315C224.608 246.152 224.164 245.971 223.72 245.772C223.277 245.572 222.872 245.337 222.507 245.064C222.148 244.786 221.858 244.45 221.638 244.055C221.419 243.655 221.308 243.179 221.306 242.626C221.305 242.055 221.458 241.532 221.767 241.057C222.075 240.577 222.521 240.193 223.103 239.906C223.685 239.612 224.39 239.465 225.216 239.462C225.89 239.461 226.482 239.559 226.993 239.758C227.51 239.951 227.933 240.22 228.262 240.566C228.597 240.905 228.829 241.293 228.958 241.73L227.501 242.226C227.348 241.868 227.068 241.565 226.66 241.317C226.259 241.063 225.742 240.937 225.11 240.939C224.436 240.941 223.905 241.091 223.517 241.39C223.135 241.688 222.945 242.099 222.946 242.621C222.948 243.016 223.076 243.347 223.332 243.613C223.594 243.874 223.935 244.101 224.354 244.294C224.774 244.487 225.224 244.674 225.704 244.855C226.154 245.024 226.604 245.217 227.054 245.435C227.511 245.646 227.927 245.906 228.305 246.215C228.688 246.523 228.996 246.902 229.228 247.351C229.46 247.794 229.577 248.331 229.579 248.963C229.581 249.746 229.401 250.412 229.038 250.96C228.675 251.508 228.178 251.928 227.547 252.221C226.916 252.509 226.2 252.653 225.398 252.655ZM231.677 252.42L231.642 239.663L233.228 239.659L233.263 252.415L231.677 252.42ZM235.856 252.408L235.821 239.652L237.424 239.648L243.099 248.707C243.19 248.859 243.279 249.01 243.364 249.162C243.449 249.314 243.538 249.477 243.63 249.653C243.623 249.495 243.614 249.337 243.601 249.179C243.594 249.022 243.591 248.87 243.591 248.724L243.566 239.631L245.151 239.626L245.186 252.382L243.655 252.387L237.89 243.291C237.811 243.151 237.725 243.006 237.634 242.854C237.548 242.703 237.463 242.551 237.377 242.399C237.39 242.533 237.399 242.679 237.406 242.837C237.412 242.995 237.416 243.146 237.416 243.292L237.441 252.404L235.856 252.408ZM251.565 252.584C250.824 252.586 250.152 252.466 249.55 252.225C248.948 251.977 248.437 251.641 248.017 251.217C247.602 250.787 247.3 250.299 247.111 249.753L248.603 249.202C248.86 249.766 249.247 250.224 249.764 250.575C250.288 250.92 250.899 251.091 251.597 251.089C252.363 251.087 252.973 250.903 253.427 250.537C253.882 250.166 254.108 249.63 254.106 248.932C254.105 248.44 253.967 248.027 253.693 247.694C253.418 247.361 253.062 247.082 252.624 246.859C252.186 246.629 251.718 246.424 251.219 246.243C250.776 246.08 250.332 245.899 249.888 245.7C249.444 245.501 249.039 245.265 248.674 244.992C248.315 244.714 248.025 244.378 247.805 243.983C247.586 243.583 247.475 243.107 247.474 242.554C247.472 241.983 247.625 241.46 247.934 240.985C248.242 240.505 248.688 240.121 249.27 239.834C249.852 239.54 250.557 239.393 251.383 239.39C252.057 239.389 252.65 239.487 253.16 239.686C253.677 239.879 254.1 240.148 254.429 240.494C254.764 240.833 254.996 241.221 255.125 241.658L253.668 242.154C253.515 241.796 253.235 241.493 252.828 241.245C252.426 240.991 251.909 240.865 251.278 240.867C250.603 240.869 250.072 241.019 249.684 241.318C249.302 241.616 249.112 242.027 249.114 242.549C249.115 242.944 249.243 243.275 249.499 243.541C249.761 243.802 250.102 244.029 250.521 244.222C250.941 244.415 251.391 244.602 251.871 244.783C252.321 244.952 252.771 245.145 253.222 245.363C253.678 245.574 254.095 245.834 254.472 246.143C254.856 246.452 255.163 246.83 255.395 247.279C255.627 247.722 255.744 248.259 255.746 248.891C255.748 249.675 255.568 250.34 255.205 250.888C254.842 251.436 254.345 251.856 253.714 252.149C253.083 252.437 252.367 252.581 251.565 252.584ZM257.845 252.348L257.809 239.591L259.395 239.587L259.412 245.838L264.37 239.573L266.156 239.569L262.651 243.988L267.229 252.322L265.389 252.327L261.579 245.321L259.418 247.988L259.43 252.343L257.845 252.348ZM268.928 252.317L268.893 239.561L270.478 239.557L270.513 252.313L268.928 252.317ZM281.039 252.503C279.994 252.505 279.134 252.313 278.458 251.926C277.783 251.54 277.28 250.973 276.95 250.227C276.62 249.481 276.454 248.573 276.451 247.504L276.429 239.54L278.014 239.536L278.036 247.499C278.039 248.605 278.273 249.467 278.736 250.085C279.205 250.703 279.972 251.011 281.035 251.008C281.709 251.006 282.267 250.877 282.71 250.621C283.159 250.359 283.492 249.969 283.709 249.452C283.926 248.929 284.034 248.273 284.032 247.483L284.01 239.519L285.595 239.515L285.617 247.479C285.619 248.305 285.524 249.031 285.331 249.657C285.139 250.283 284.852 250.809 284.47 251.236C284.089 251.656 283.61 251.973 283.033 252.187C282.463 252.395 281.798 252.5 281.039 252.503ZM291.075 252.256C291.073 251.418 291.189 250.68 291.425 250.041C291.666 249.397 291.986 248.831 292.386 248.344C292.791 247.851 293.246 247.415 293.749 247.037C294.252 246.659 294.764 246.318 295.286 246.012C295.741 245.744 296.165 245.463 296.559 245.171C296.953 244.872 297.271 244.54 297.513 244.175C297.761 243.81 297.885 243.387 297.883 242.907C297.882 242.294 297.656 241.781 297.205 241.369C296.754 240.951 296.146 240.743 295.381 240.746C294.597 240.748 293.993 240.923 293.569 241.27C293.151 241.611 292.851 242.065 292.671 242.63L291.248 241.996C291.495 241.212 291.988 240.564 292.727 240.051C293.473 239.533 294.375 239.272 295.431 239.269C296.282 239.267 297.011 239.42 297.619 239.728C298.234 240.036 298.703 240.466 299.026 241.018C299.356 241.57 299.522 242.21 299.524 242.939C299.526 243.686 299.363 244.322 299.037 244.845C298.71 245.362 298.277 245.819 297.738 246.215C297.204 246.611 296.625 246.993 296 247.359C295.479 247.664 295.003 247.981 294.572 248.31C294.142 248.634 293.782 248.99 293.491 249.379C293.201 249.769 293.007 250.21 292.912 250.702L299.654 250.684L299.658 252.233L291.075 252.256ZM305.897 252.434C305.04 252.437 304.323 252.247 303.745 251.866C303.173 251.485 302.716 250.976 302.374 250.339C302.032 249.696 301.787 248.986 301.639 248.209C301.491 247.426 301.416 246.639 301.414 245.85C301.413 245.291 301.45 244.708 301.528 244.1C301.611 243.486 301.749 242.894 301.942 242.322C302.135 241.744 302.401 241.224 302.739 240.762C303.078 240.299 303.503 239.931 304.012 239.656C304.528 239.381 305.144 239.243 305.861 239.241C306.717 239.238 307.431 239.431 308.003 239.818C308.581 240.199 309.042 240.711 309.383 241.354C309.725 241.997 309.97 242.707 310.118 243.484C310.266 244.261 310.341 245.042 310.343 245.825C310.345 246.384 310.304 246.97 310.221 247.584C310.137 248.192 309.996 248.784 309.797 249.362C309.604 249.934 309.339 250.451 309 250.913C308.661 251.376 308.237 251.744 307.727 252.019C307.218 252.294 306.608 252.432 305.897 252.434ZM305.893 250.94C306.47 250.938 306.94 250.782 307.304 250.471C307.667 250.154 307.949 249.744 308.148 249.239C308.347 248.728 308.482 248.175 308.553 247.58C308.631 246.984 308.668 246.401 308.667 245.83C308.665 245.198 308.621 244.582 308.534 243.981C308.447 243.373 308.3 242.824 308.092 242.333C307.89 241.835 307.607 241.441 307.242 241.15C306.882 240.86 306.423 240.715 305.865 240.717C305.281 240.718 304.805 240.878 304.435 241.195C304.066 241.505 303.781 241.916 303.582 242.427C303.383 242.938 303.245 243.494 303.168 244.095C303.09 244.691 303.053 245.274 303.054 245.845C303.056 246.471 303.1 247.087 303.187 247.695C303.273 248.302 303.421 248.851 303.629 249.342C303.843 249.828 304.132 250.216 304.497 250.506C304.869 250.797 305.334 250.941 305.893 250.94ZM319.709 252.396C318.968 252.398 318.296 252.279 317.694 252.037C317.092 251.79 316.581 251.454 316.161 251.03C315.747 250.6 315.445 250.112 315.255 249.566L316.748 249.015C317.004 249.579 317.391 250.037 317.909 250.388C318.432 250.732 319.043 250.904 319.741 250.902C320.507 250.9 321.117 250.716 321.571 250.35C322.026 249.978 322.252 249.443 322.25 248.745C322.249 248.253 322.111 247.84 321.837 247.507C321.563 247.173 321.206 246.895 320.768 246.671C320.33 246.442 319.862 246.236 319.364 246.056C318.92 245.893 318.476 245.712 318.032 245.512C317.588 245.313 317.183 245.077 316.818 244.805C316.459 244.527 316.169 244.19 315.95 243.796C315.73 243.396 315.619 242.919 315.618 242.367C315.616 241.796 315.77 241.273 316.078 240.798C316.387 240.317 316.832 239.933 317.414 239.646C317.997 239.353 318.701 239.205 319.527 239.203C320.201 239.201 320.794 239.3 321.305 239.499C321.821 239.692 322.244 239.961 322.573 240.306C322.908 240.646 323.14 241.034 323.269 241.471L321.812 241.967C321.66 241.609 321.379 241.306 320.972 241.058C320.57 240.804 320.053 240.678 319.422 240.68C318.747 240.681 318.216 240.832 317.828 241.13C317.447 241.429 317.256 241.84 317.258 242.362C317.259 242.757 317.387 243.088 317.643 243.354C317.905 243.615 318.246 243.841 318.666 244.035C319.085 244.228 319.535 244.415 320.016 244.596C320.466 244.765 320.916 244.958 321.366 245.175C321.822 245.387 322.239 245.647 322.616 245.955C323 246.264 323.307 246.643 323.54 247.092C323.772 247.535 323.888 248.072 323.89 248.704C323.892 249.487 323.712 250.153 323.349 250.701C322.986 251.248 322.489 251.669 321.858 251.962C321.227 252.249 320.511 252.394 319.709 252.396ZM324.581 252.164L329.065 239.396L330.541 239.392L335.095 252.135L333.473 252.14L332.371 249.027L327.305 249.041L326.239 252.16L324.581 252.164ZM327.775 247.636L331.876 247.625L330.223 242.91C330.18 242.788 330.131 242.649 330.076 242.491C330.027 242.327 329.977 242.169 329.928 242.017C329.879 241.86 329.843 241.726 329.818 241.617C329.788 241.726 329.749 241.86 329.701 242.018C329.659 242.17 329.61 242.328 329.556 242.492C329.508 242.65 329.463 242.79 329.421 242.912L327.775 247.636ZM337.528 252.129L337.497 240.885L333.943 240.895L333.939 239.382L342.631 239.358L342.636 240.871L339.082 240.881L339.113 252.124L337.528 252.129ZM344.436 252.11L344.401 239.353L345.986 239.349L346.021 252.105L344.436 252.11Z" fill="white"/>
</g>
<defs>
<clipPath id="clip0_10_1202">
<rect width="434.386" height="328.942" fill="white" transform="translate(0 1.44592) rotate(-0.157483)"/>
</clipPath>
</defs>
</svg>
