<svg width="512" height="176" viewBox="0 0 512 176" fill="none" xmlns="http://www.w3.org/2000/svg">
<g clip-path="url(#clip0_10_1374)">
<path d="M115.307 105.718C142.302 108.77 169.573 107.986 196.731 107.219C284.716 104.689 372.684 102.143 460.669 99.6131C468.225 99.4009 476.01 99.2214 483.061 101.947C495.726 106.86 503.347 120.473 505.045 133.955C506.742 147.437 503.56 161.016 500.41 174.237C499.479 178.122 393.526 173.715 383.031 173.666C342.932 173.486 302.848 173.34 262.748 173.274C223.138 173.193 183.528 173.176 143.917 173.274C120.938 173.323 56.2428 185.646 45.3242 157.85C40.0037 144.303 51.3629 128.454 59.6375 118.694C74.7177 100.903 94.0088 103.335 115.307 105.75V105.718Z" fill="#CE181E"/>
<path d="M21.3344 71.6372L20.4857 71.6862C22.0362 87.0452 26.1653 100.854 32.1223 100.543C40.8049 100.086 39.3687 96.0059 44.1833 95.7448C46.8272 95.6142 48.0513 97.2464 48.1492 99.2377C48.2145 100.38 47.9044 101.719 47.2842 102.78C45.7174 105.505 41.9474 107.513 33.9176 107.921C5.78078 109.39 1.17835 88.1224 0.215428 69.8907C-0.208909 61.8603 0.982499 39.2544 8.75114 32.0237C8.62057 29.5754 9.15915 28.9715 10.9544 28.8736C20.2082 28.4003 29.5437 29.3306 40.2827 30.1957C43.8895 30.4731 44.7056 31.583 44.9014 33.3621V33.4601C45.0973 37.1488 41.2782 38.4872 41.2782 38.4872C41.2782 38.4872 35.7129 40.6744 21.367 41.8006C20.045 47.3664 19.5717 54.7766 19.8818 62.3337L20.3551 62.301C26.0184 62.0072 34.2603 61.8603 37.247 62.8396C38.112 63.0845 38.6343 64.0964 38.6996 65.2227C38.7648 66.3489 38.3405 67.5077 37.4265 67.9484C30.017 71.0823 24.2558 71.474 21.3344 71.6209V71.6372Z" fill="#CE181E"/>
<path d="M126.047 36.2511C126.422 43.4328 126.292 53.6667 127.043 68.2096C128.152 89.5588 127.549 108.819 115.83 109.423C112.436 109.602 110.51 90.8482 109.465 70.7232C108.976 61.1748 108.649 51.4469 108.502 43.1227C103.835 51.6917 98.5957 61.9256 95.8865 64.7167C94.9072 65.8103 92.7856 66.8712 90.9903 66.9528C88.9992 67.0507 87.0896 64.7004 85.2944 59.4773C84.2988 56.6863 79.37 49.4556 74.5554 42.225C74.7349 43.7266 74.8002 45.2446 74.8981 46.8441C76.3343 78.215 73.3803 110.565 73.3803 110.565C73.3803 110.565 72.5642 111.267 70.9648 111.349C69.447 111.43 67.26 110.973 64.5671 108.655C61.7926 106.338 60.6991 92.6599 59.9157 77.6437C59.5404 70.2825 59.2303 62.6111 58.8712 55.7233C58.3326 45.522 57.1086 40.1847 56.7169 32.4481C56.521 28.7593 56.5863 20.7126 62.1517 20.4188C71.6013 19.9292 86.2736 36.1206 93.52 49.8474C96.3761 40.8866 109.922 19.162 114.459 18.9172C124.007 18.4275 125.655 28.3676 126.063 36.2185L126.047 36.2511Z" fill="#CE181E"/>
<path d="M158.835 67.7036L160.32 96.2344C160.646 102.665 159.961 105.815 152.127 106.223C144.472 106.615 142.791 99.6947 142.09 86.3759C141.437 73.7264 142.4 57.8451 141.861 47.2685C141.698 44.053 141.159 40.9519 140.914 36.2348C140.229 23.014 143.917 17.6114 148.357 17.3829C152.045 17.187 154.673 18.5744 155.652 19.2763C157.937 17.6441 160.907 16.5342 164.971 16.322C178.093 15.6365 187.934 20.9085 188.734 36.1205C189.338 47.8397 186.106 67.6057 164.579 68.7319C162.213 68.8625 160.303 68.487 158.851 67.7036H158.835ZM157.464 41.4415L158.427 59.9506C162.115 59.9506 161.903 61.1911 166.522 60.9463C171.157 60.7015 173.197 49.1292 172.674 38.9279C172.25 30.7996 170.161 23.52 166.489 23.7158C156.762 24.2218 159.553 34.3088 158.786 39.3686C158.704 39.7604 158.573 40.707 157.48 41.4252L157.464 41.4415Z" fill="#CE181E"/>
<path d="M198.642 50.1901C201.09 29.8856 204.289 20.2556 207.961 16.4526C209.495 14.853 211.454 14.2817 214.098 14.1512C215.616 14.0695 217.705 14.445 220.545 16.0935C227.008 20.0271 232.149 71.5556 237.779 87.1757C238.775 89.9668 239.183 92.2192 239.281 94.1126C239.526 98.748 238.138 101.376 233.144 101.637C229.358 101.833 223.172 99.2214 217.688 72.2248C214.849 72.3717 210.034 72.6165 205.774 72.5675L202.396 93.1006C201.662 97.3117 201.613 97.9646 198.871 98.1115C195.851 98.2747 195.329 95.6468 195.264 94.3248C194.595 81.3814 196.782 65.1737 198.659 50.1901H198.642ZM207.145 64.3413C209.855 63.721 212.123 63.5089 213.641 63.4272C215.159 63.3456 216.007 63.3946 216.007 63.3946C214.751 53.6993 213.461 43.4491 212.645 35.0596C211.519 40.6091 210.001 48.0846 207.162 64.3249L207.145 64.3413Z" fill="#CE181E"/>
<path d="M234.431 28.1554C240.764 24.4177 266.909 11.5886 290.231 10.3808C302.227 9.76055 303.092 15.3916 303.206 17.5625V17.6604C303.321 19.8312 299.42 21.3655 291.211 21.7899H291.113C287.995 21.9531 280.88 23.5526 272.736 25.4949C277.469 32.8235 279.9 70.2009 283.214 83.1116C283.932 85.9189 284.225 88.1714 284.34 90.0647C284.617 95.5489 282.414 98.6011 277.501 98.846C274.188 99.0255 268.868 96.8384 266.338 77.3499C265.212 68.6013 264.559 59.6405 264.151 51.6917C263.596 41.1151 263.531 32.3992 263.466 27.6658C253.543 29.9835 243.913 32.187 239.752 32.3991H239.556C237.01 32.546 234.578 31.5341 234.431 28.5961L234.398 28.1228L234.431 28.1554Z" fill="#EE5A28"/>
<path d="M322.188 98.5195C320.67 98.6011 318.565 98.1441 315.888 95.908C313.114 93.5903 311.922 79.8145 311.139 64.6188C310.763 57.4371 310.47 49.88 310.111 43.0737C309.572 32.7746 308.348 27.4373 307.94 19.6027C307.63 13.5636 308.087 7.75295 315.35 7.37754C318.744 7.198 324.718 9.07503 326.023 34.0966C327.655 65.3696 324.603 97.7197 324.603 97.7197C324.603 97.7197 323.787 98.4216 322.188 98.5032V98.5195Z" fill="#EE5A28"/>
<path d="M369.5 32.1217C370.039 42.6004 363.869 49.5535 358.418 55.8049C363.804 64.7983 371.964 74.0365 379.766 80.2715C386.082 74.265 386.931 65.0268 386.588 58.5959L386.474 56.523C383.095 55.3642 380.223 54.6623 378.15 54.7766C376.551 54.8582 375.441 55.4784 374.853 56.9311C374.347 58.2858 374.054 59.7221 374.119 61.0442C374.184 62.1704 374.51 63.1008 374.641 63.77C374.853 64.227 374.87 64.5208 374.886 64.8962C374.935 65.8429 374.2 66.3489 373.45 66.3978C372.878 66.4305 372.307 66.2673 371.915 65.9082C370.528 64.8472 369.467 62.4316 369.337 59.8854C369.239 57.992 369.614 56.0823 370.365 54.238C371.785 50.4676 374.005 47.8887 376.975 46.5993C378.183 46.0606 379.586 45.7016 381.088 45.6199C391.092 45.0976 398.371 53.7157 404.312 53.4055C405.259 53.3566 405.52 52.9648 405.569 52.0182C405.536 51.349 405.699 50.9736 405.879 50.5818C406.14 49.9942 406.695 49.88 407.919 49.7168C408.49 49.6841 409.763 50.6634 409.861 52.4589C410.09 56.8005 405.291 59.4283 401.244 59.6405C398.502 59.7874 395.629 59.2651 393.72 58.8897C393.899 69.7765 390.554 78.2802 385.576 84.3194C389.493 86.6697 393.067 88.0081 395.988 87.8449C397.115 87.7796 397.931 88.7916 397.98 89.8199C398.045 91.044 397.164 92.3335 394.715 92.4477C390.652 92.6599 385.755 91.4847 380.533 89.2976C375.441 93.3454 369.5 95.5489 364.196 95.8264C349.752 96.5772 337.691 90.5707 336.957 76.4032C336.565 68.9441 340.498 62.5785 345.199 56.4577C342.767 51.5611 341.249 46.2402 340.972 40.8539C340.172 25.3644 349.083 18.3622 355.317 18.0358C362.303 17.6767 368.945 21.594 369.5 32.0727V32.1217ZM350.992 66.0387C349.801 68.4707 349.165 71.0659 349.311 73.8896C349.638 80.1246 351.221 86.9472 363.967 86.2943C366.987 86.1311 369.614 85.7231 371.948 84.9396C364.31 80.2226 356.688 73.7101 350.976 66.0387H350.992ZM353.718 45.6363C357.145 40.6254 359.071 35.7941 358.745 29.2653C358.614 26.6212 357.961 23.3404 355.219 23.4873C352.298 23.6342 352.2 32.7419 352.543 39.5318C352.641 41.4252 353.032 43.4818 353.718 45.6199V45.6363Z" fill="#CE181E"/>
<path d="M456.834 43.3022C457.209 50.4839 456.915 57.6982 454.99 66.2183C450.224 87.4858 438.848 92.9211 430.737 93.3454C428.093 93.476 425.71 93.1332 424.062 92.562C416.93 90.2769 415.118 80.8102 415.004 78.6393C415.232 77.4968 415.853 74.9016 418.023 74.7873C418.399 74.771 418.872 74.8363 419.361 74.9995C421.206 75.7503 423.654 82.7361 430.068 82.3934C438.669 81.9527 439.044 56.3598 438.75 50.7777C438.114 38.6831 435.127 28.5145 434.621 18.6887C434.295 12.4537 434.54 0.783442 443.794 0.310105C452.395 -0.130589 453.439 7.29592 453.488 8.14466C454.222 22.3121 456.279 32.7256 456.834 43.3022Z" fill="#EE5A28"/>
<path d="M470.478 36.0553C472.926 15.7507 476.125 6.12075 479.797 2.31773C481.331 0.718175 483.29 0.146905 485.934 0.0163295C487.452 -0.0652804 489.541 0.310125 492.381 1.95865C498.844 5.89225 503.985 57.4371 509.615 73.0409C510.611 75.832 511.019 78.0844 511.117 79.9777C511.361 84.6132 509.974 87.241 504.98 87.5022C501.194 87.6981 495.008 85.0865 489.524 58.09C486.685 58.2369 481.87 58.4817 477.61 58.4327L474.232 78.9658C473.498 83.1769 473.449 83.8297 470.707 83.9766C467.687 84.1399 467.165 81.512 467.1 80.1899C466.431 67.2466 468.618 51.0389 470.495 36.0553H470.478ZM478.981 50.1901C481.691 49.5699 483.959 49.3577 485.477 49.2924C486.995 49.2108 487.843 49.2598 487.843 49.2598C486.587 39.5645 485.297 29.3143 484.481 20.9248C483.355 26.4743 481.837 33.9497 478.998 50.1901H478.981Z" fill="#EE5A28"/>
<path d="M97.7119 145.657C97.7119 153.329 92.3424 160.282 80.2651 160.478H79.7755C76.2992 160.478 74.5039 158.911 74.5039 156.512C74.5039 154.112 75.4831 127.132 75.4831 119.656C75.4831 115.445 80.7221 114.907 84.0841 114.907C88.9314 114.907 95.2801 116.572 95.2801 125.173C95.2801 130.152 93.3216 133.041 90.8246 134.705C95.8677 135.734 97.7119 140.663 97.7119 145.657ZM83.872 133.138C86.6628 132.355 88.7682 129.074 88.7682 124.439C88.7682 119.803 84.9981 119.493 83.0559 119.444C83.1049 121.844 83.4476 127.067 83.8883 133.138H83.872ZM85.096 155.043C87.3972 154.112 90.8082 151.909 90.8082 146.931C90.8082 141.267 86.7934 140.532 84.3616 140.532C84.7043 145.559 84.9491 150.701 85.096 155.059V155.043Z" fill="white"/>
<path d="M128.51 158.372C127.775 158.372 126.698 157.834 125.034 156.365C124.201 155.63 123.956 153.035 123.956 149.526V147.224C121.606 152.937 117.755 158.029 111.341 158.029C104.927 158.029 102.984 150.799 102.984 142.817C102.984 132.992 105.726 122.039 105.726 122.039C105.726 122.039 106.657 117.012 109.252 117.012C111.357 117.012 115.258 117.502 115.258 118.677C115.258 125.908 112.565 141.316 112.565 148.693C112.565 151.24 112.858 152.855 113.74 152.855H113.887C117.216 152.121 121.851 147.339 124.642 133.938C124.789 131.392 124.887 128.993 124.887 126.952C124.887 125.385 124.838 124.014 124.691 122.937C124.593 122.35 124.593 121.762 124.593 121.272C124.593 118.09 126.111 116.865 127.824 116.865C129.44 116.865 133.096 117.355 133.096 127.817C133.096 128.356 133.047 128.846 133.047 129.433C132.606 143.568 130.648 156.854 129.718 157.785C129.375 158.127 128.983 158.372 128.494 158.372H128.51Z" fill="white"/>
<path d="M145.288 115.69C153.938 115.69 167.631 118.041 167.631 133.383C167.631 156.267 155.504 159.531 148.568 159.531C147.98 159.531 147.393 159.531 146.903 159.482C146.218 160.021 145.337 160.266 144.259 160.266C138.645 160.266 138.449 148.873 138.449 147.453V147.306C138.449 130.984 138.988 122.905 139.869 118.955C139.135 118.318 138.939 117.584 138.939 117.045C138.939 116.506 139.135 116.115 139.135 116.115L141.093 115.87C141.632 115.233 142.219 115.135 142.856 115.135C143.835 115.135 144.618 115.331 145.304 115.674L145.288 115.69ZM149.107 148.742C149.107 151.289 149.058 153.345 148.813 155.043C157.561 153.623 158.197 143.895 158.197 136.468C158.197 129.727 156.728 120.962 149.107 120.962H148.323C149.009 124.684 149.009 130.201 149.009 137.676C149.009 141.985 149.107 145.69 149.107 148.726V148.742Z" fill="white"/>
<path d="M178.239 161.31C177.456 161.31 176.378 161.016 175.056 159.792C173.685 158.519 173.441 151.386 173.441 143.519C173.441 139.798 173.49 135.897 173.49 132.371C173.49 127.034 173 124.259 173 120.195C173 117.061 173.392 114.091 177.162 114.091C178.924 114.091 181.96 115.217 181.96 128.177C181.96 144.352 179.512 160.984 179.512 160.984C179.512 160.984 179.071 161.327 178.239 161.327V161.31Z" fill="white"/>
<path d="M224.788 123.9C224.788 127.622 224.445 132.894 224.445 140.418C224.445 151.468 223.613 161.392 217.558 161.392C215.795 161.392 215.305 151.664 215.305 141.25C215.305 136.305 215.403 131.278 215.55 126.969C212.906 131.278 209.936 136.403 208.467 137.774C207.928 138.313 206.802 138.802 205.872 138.802C204.844 138.802 203.914 137.529 203.13 134.787C202.69 133.318 200.339 129.466 198.038 125.598C198.087 126.381 198.087 127.165 198.087 127.997C197.989 144.221 195.59 160.853 195.59 160.853C195.59 160.853 195.149 161.196 194.317 161.196C193.534 161.196 192.408 160.902 191.086 159.629C189.715 158.356 189.519 151.272 189.519 143.503C189.519 139.684 189.568 135.734 189.568 132.159C189.568 126.871 189.078 124.096 189.078 120.081C189.078 118.171 189.323 114.025 192.212 114.025C197.108 114.025 204.24 122.774 207.618 130.054C209.332 125.5 216.905 114.646 219.255 114.646C224.184 114.646 224.771 119.836 224.771 123.884L224.788 123.9Z" fill="white"/>
<path d="M245.76 116.18C248.306 116.18 261.689 116.816 261.689 130.315C261.689 143.813 258.262 151.191 255.046 154.716C252.158 157.948 247.767 159.27 243.214 159.27C237.845 159.27 231.137 156.822 231.137 144.45C231.137 123.623 237.241 116.196 245.76 116.196V116.18ZM251.929 132.159C251.929 122.088 249.53 120.081 247.572 120.081C244.536 120.081 240.88 121.354 240.88 143.699C240.88 147.126 241.566 155.287 246.739 155.287C249.726 155.287 251.913 148.889 251.913 132.159H251.929Z" fill="white"/>
<path d="M292.453 141.022V155.793C292.453 159.123 292.012 160.723 287.948 160.723C283.884 160.723 283.297 157.099 283.297 150.211C283.297 143.323 284.227 135.489 284.227 130.021C284.227 128.356 284.031 126.74 284.031 124.308C284.031 117.469 286.088 114.776 288.389 114.776C290.298 114.776 291.62 115.56 292.11 115.951C293.334 115.168 294.901 114.678 297.006 114.678C303.796 114.678 308.741 117.665 308.741 125.532C308.741 131.588 306.537 141.707 295.39 141.707C294.166 141.707 293.187 141.463 292.453 141.022ZM292.453 127.426V137.007C294.362 137.105 294.215 137.741 296.615 137.741C299.014 137.741 300.385 131.833 300.385 126.544C300.385 122.333 299.503 118.53 297.594 118.53C292.551 118.53 293.726 123.802 293.187 126.397C293.138 126.593 293.04 127.083 292.453 127.426Z" fill="white"/>
<path d="M326.237 116.18C328.783 116.18 342.166 116.816 342.166 130.315C342.166 143.813 338.738 151.191 335.523 154.716C332.634 157.948 328.244 159.27 323.691 159.27C318.321 159.27 311.613 156.822 311.613 144.45C311.613 123.623 317.717 116.196 326.237 116.196V116.18ZM332.406 132.159C332.406 122.088 330.007 120.081 328.048 120.081C325.013 120.081 321.357 121.354 321.357 143.699C321.357 147.126 322.042 155.287 327.216 155.287C330.203 155.287 332.39 148.889 332.39 132.159H332.406Z" fill="white"/>
<path d="M354.061 115.69C362.711 115.69 376.404 118.041 376.404 133.383C376.404 156.267 364.278 159.531 357.341 159.531C356.754 159.531 356.166 159.531 355.677 159.482C354.991 160.021 354.11 160.266 353.033 160.266C347.419 160.266 347.223 148.873 347.223 147.453V147.306C347.223 130.984 347.761 122.905 348.643 118.955C347.908 118.318 347.712 117.584 347.712 117.045C347.712 116.506 347.908 116.115 347.908 116.115L349.867 115.87C350.405 115.233 350.993 115.135 351.629 115.135C352.608 115.135 353.392 115.331 354.077 115.674L354.061 115.69ZM357.88 148.742C357.88 151.289 357.831 153.345 357.586 155.043C366.334 153.623 366.971 143.895 366.971 136.468C366.971 129.727 365.502 120.962 357.88 120.962H357.097C357.782 124.684 357.782 130.201 357.782 137.676C357.782 141.985 357.88 145.69 357.88 148.726V148.742Z" fill="white"/>
<path d="M404.622 128.601C404.622 132.812 403.937 137.496 399.204 139.455C401.652 142.785 404.671 150.211 406.679 152.806C407.658 154.031 407.952 154.961 407.952 155.695C407.952 157.36 405.601 158.34 404.279 158.34C402.957 158.34 401.048 157.409 399.089 153.508C396.543 148.563 394.83 143.095 394.095 140.402H393.508C392.382 140.402 391.451 140.353 390.668 140.206C390.521 149.64 390.08 158.193 390.08 158.193C390.08 158.193 388.612 159.368 386.604 159.368C381.708 159.368 381.137 154.177 381.137 150.619C381.137 147.29 381.479 142.654 381.577 136.142C381.92 118.057 382.41 115.853 388.416 115.853C388.612 115.853 388.807 116 388.954 116.196C390.129 116 391.647 115.853 393.459 115.853C400.934 115.853 404.606 123.182 404.606 128.617L404.622 128.601ZM393.916 137.105C396.413 137.105 397.588 133.236 397.588 129.091C397.588 124.194 395.972 118.922 393.083 118.922C391.468 118.922 390.733 119.314 389.999 119.705C390.537 123.329 390.733 129.042 390.733 136.223C390.978 136.615 391.419 137.105 393.916 137.105Z" fill="white"/>
<path d="M431.112 119.461C431.112 119.95 430.622 121.419 429.3 121.419C428.272 121.419 427.783 119.314 425.873 119.314C424.11 119.314 421.613 120.342 421.613 126.593C421.613 139.014 429.284 141.12 429.284 149.477C429.284 156.316 424.388 159.498 417.696 159.498C413.339 159.498 411.348 156.56 411.348 154.455C411.348 153.28 411.984 152.349 413.159 152.349C415.412 152.349 414.383 155.679 417.125 155.679C419.377 155.679 419.916 154.259 419.916 151.762C419.916 147.404 413.078 139.879 413.078 132.306C413.078 117.926 422.413 115.739 426.036 115.739C430.198 115.739 431.128 118.971 431.128 119.461H431.112ZM415.428 104.2C415.428 103.612 415.868 103.367 416.652 103.22C418.17 103.22 421.352 107.921 423.245 110.01C425.449 108.003 426.967 105.897 427.799 104.722C428.631 103.596 429.317 103.253 429.855 103.253C430.541 103.253 430.932 103.645 430.932 104.428C430.932 105.212 430.639 106.338 429.806 107.562C427.064 111.626 424.763 113.324 422.821 113.324C421.499 113.324 420.373 112.54 419.394 111.169C415.868 106.142 415.428 104.624 415.428 104.183V104.2Z" fill="white"/>
<path d="M457.176 117.698C458.009 117.698 458.302 118.432 458.302 119.265C458.302 120.048 458.107 120.783 458.107 120.783C456.932 125.532 450.877 133.155 446.372 138.231C449.799 141.316 455.071 149.624 457.911 152.268C459.527 153.786 460.016 154.961 460.016 155.891C460.016 157.556 457.764 159.466 456.05 159.466C454.63 159.466 452.672 158.486 450.142 155.059C447.498 151.533 445.148 147.681 443.5 144.596C443.304 152.953 443.01 159.76 443.01 159.76C443.01 159.76 441.639 161.131 439.827 161.131C435.421 161.131 435.078 155.32 435.078 151.892C435.078 148.122 435.372 142.899 435.372 135.326C435.372 124.276 436.155 114.352 441.525 114.352C443.092 114.352 443.532 123.786 443.581 134.052C447.743 127.948 452.182 123.345 454.924 119.673C454.924 119.673 456.246 117.714 457.176 117.714V117.698Z" fill="white"/>
<path d="M465.403 133.041C467.214 122.627 469.124 117.731 471.115 115.886C471.947 115.103 472.975 114.858 474.346 114.858C475.13 114.858 476.207 115.103 477.627 116.033C480.858 118.236 482.131 144.972 484.612 153.182C485.053 154.651 485.2 155.826 485.2 156.805C485.2 159.205 484.416 160.527 481.821 160.527C479.863 160.527 476.729 159.009 474.64 144.923C473.171 144.923 470.674 144.923 468.487 144.776L466.186 155.287C465.696 157.442 465.647 157.785 464.228 157.785C462.661 157.785 462.465 156.414 462.465 155.728C462.465 149.036 464.032 140.712 465.403 133.041ZM469.401 140.581C470.821 140.336 471.996 140.287 472.78 140.287C473.563 140.287 474.004 140.336 474.004 140.336C473.612 135.309 473.22 129.972 473.024 125.614C472.29 128.454 471.311 132.257 469.401 140.581Z" fill="white"/>
</g>
<defs>
<clipPath id="clip0_10_1374">
<rect width="511" height="176" fill="white" transform="translate(0.148438)"/>
</clipPath>
</defs>
</svg>
