<svg width="285" height="137" viewBox="0 0 285 137" fill="none" xmlns="http://www.w3.org/2000/svg">
<path d="M245.825 29.672C249.178 37.0491 293.441 59.1804 282.71 92.7125C271.979 126.245 202.903 101.431 162.665 126.915C122.427 152.4 22.2445 124.334 11.0992 81.9823C6.85182 71.9226 -1.24063 50.5961 0.368916 45.7675C2.38085 39.7317 11.0992 9.55271 41.2782 10.2234C71.4572 10.894 132.486 0.834369 155.958 0.834369C184.442 0.834369 229.516 -6.20713 245.825 29.672Z" fill="white"/>
<path d="M56.9639 62.4587V48.4587H62.3239C63.4572 48.4587 64.3539 48.6654 65.0139 49.0787C65.6739 49.4854 66.1439 50.0121 66.4239 50.6587C66.7039 51.2987 66.8439 51.9654 66.8439 52.6587C66.8439 53.1387 66.7606 53.6254 66.5939 54.1187C66.4339 54.6054 66.1739 55.0554 65.8139 55.4687C65.4539 55.8821 64.9872 56.2154 64.4139 56.4687C63.8406 56.7154 63.1439 56.8387 62.3239 56.8387H58.7039V62.4587H56.9639ZM58.7039 55.2187H62.4439C63.1039 55.2187 63.6272 55.0887 64.0139 54.8287C64.4072 54.5687 64.6872 54.2421 64.8539 53.8487C65.0206 53.4554 65.1039 53.0587 65.1039 52.6587C65.1039 52.2921 65.0272 51.9087 64.8739 51.5087C64.7272 51.1087 64.4606 50.7721 64.0739 50.4987C63.6872 50.2187 63.1439 50.0787 62.4439 50.0787H58.7039V55.2187ZM73.9016 62.6987C72.8016 62.6987 71.8716 62.4887 71.1116 62.0687C70.3516 61.6421 69.7416 61.0787 69.2816 60.3787C68.8216 59.6721 68.4849 58.8921 68.2716 58.0387C68.0649 57.1854 67.9616 56.3254 67.9616 55.4587C67.9616 54.5921 68.0649 53.7321 68.2716 52.8787C68.4849 52.0254 68.8216 51.2487 69.2816 50.5487C69.7416 49.8421 70.3516 49.2787 71.1116 48.8587C71.8716 48.4321 72.8016 48.2187 73.9016 48.2187C75.0082 48.2187 75.9416 48.4321 76.7016 48.8587C77.4616 49.2787 78.0716 49.8421 78.5316 50.5487C78.9916 51.2487 79.3249 52.0254 79.5316 52.8787C79.7382 53.7321 79.8416 54.5921 79.8416 55.4587C79.8416 56.3254 79.7382 57.1854 79.5316 58.0387C79.3249 58.8921 78.9916 59.6721 78.5316 60.3787C78.0716 61.0787 77.4616 61.6421 76.7016 62.0687C75.9416 62.4887 75.0082 62.6987 73.9016 62.6987ZM73.9016 61.0587C74.6749 61.0587 75.3249 60.8887 75.8516 60.5487C76.3782 60.2087 76.8016 59.7621 77.1216 59.2087C77.4482 58.6487 77.6816 58.0421 77.8216 57.3887C77.9682 56.7287 78.0416 56.0854 78.0416 55.4587C78.0416 54.7721 77.9682 54.0987 77.8216 53.4387C77.6816 52.7721 77.4482 52.1687 77.1216 51.6287C76.8016 51.0821 76.3782 50.6487 75.8516 50.3287C75.3249 50.0021 74.6749 49.8387 73.9016 49.8387C73.1349 49.8387 72.4882 50.0087 71.9616 50.3487C71.4349 50.6887 71.0082 51.1387 70.6816 51.6987C70.3616 52.2521 70.1282 52.8587 69.9816 53.5187C69.8349 54.1787 69.7616 54.8254 69.7616 55.4587C69.7616 56.1454 69.8349 56.8221 69.9816 57.4887C70.1282 58.1487 70.3616 58.7487 70.6816 59.2887C71.0082 59.8287 71.4349 60.2587 71.9616 60.5787C72.4882 60.8987 73.1349 61.0587 73.9016 61.0587ZM82.0733 62.4587V48.4587H85.8933C87.0933 48.4587 88.1066 48.6587 88.9333 49.0587C89.7666 49.4587 90.4366 49.9954 90.9433 50.6687C91.4499 51.3354 91.8166 52.0854 92.0433 52.9187C92.2766 53.7454 92.3933 54.5921 92.3933 55.4587C92.3933 56.2654 92.2866 57.0787 92.0733 57.8987C91.8599 58.7187 91.5033 59.4754 91.0033 60.1687C90.5099 60.8554 89.8399 61.4087 88.9933 61.8287C88.1466 62.2487 87.0866 62.4587 85.8133 62.4587H82.0733ZM83.8133 60.8387H86.0333C86.9066 60.8387 87.6333 60.6821 88.2133 60.3687C88.7999 60.0487 89.2666 59.6287 89.6133 59.1087C89.9666 58.5821 90.2166 58.0021 90.3633 57.3687C90.5166 56.7287 90.5933 56.0921 90.5933 55.4587C90.5933 54.7787 90.5099 54.1187 90.3433 53.4787C90.1833 52.8321 89.9266 52.2521 89.5733 51.7387C89.2266 51.2254 88.7799 50.8187 88.2333 50.5187C87.6866 50.2121 87.0266 50.0587 86.2533 50.0587H83.8133V60.8387ZM94.6084 62.4587V48.4587H100.128C101.248 48.4587 102.128 48.6521 102.768 49.0387C103.415 49.4254 103.872 49.9254 104.138 50.5387C104.412 51.1454 104.548 51.7787 104.548 52.4387C104.548 52.9921 104.438 53.5387 104.218 54.0787C104.005 54.6121 103.658 55.0821 103.178 55.4887C102.698 55.8954 102.068 56.1787 101.288 56.3387L104.288 62.4587H102.328L99.4484 56.4587H96.3484V62.4587H94.6084ZM96.3484 54.8387H100.168C100.822 54.8387 101.338 54.7221 101.718 54.4887C102.105 54.2554 102.378 53.9587 102.538 53.5987C102.705 53.2387 102.788 52.8654 102.788 52.4787C102.788 52.1321 102.712 51.7754 102.558 51.4087C102.412 51.0354 102.148 50.7221 101.768 50.4687C101.388 50.2087 100.855 50.0787 100.168 50.0787H96.3484V54.8387ZM106.014 62.4587V61.1187L114.134 50.1187H106.474V48.4587H116.394V49.7987L108.314 60.7987H116.394V62.4587H106.014ZM110.794 47.1587L107.874 44.0387H109.534L111.634 45.8387L113.734 44.0387H115.374L112.454 47.1587H110.794ZM118.722 62.4587V48.4587H120.462V62.4587H118.722ZM126.308 62.4587V50.1187H122.408V48.4587H131.948V50.1187H128.048V62.4587H126.308ZM133.89 62.4587V48.4587H142.21V50.0987H135.63V54.3987H139.97V56.0387H135.63V60.7987H142.65V62.4587H133.89ZM148.569 62.4587V48.4587H153.929C155.063 48.4587 155.959 48.6654 156.619 49.0787C157.279 49.4854 157.749 50.0121 158.029 50.6587C158.309 51.2987 158.449 51.9654 158.449 52.6587C158.449 53.1387 158.366 53.6254 158.199 54.1187C158.039 54.6054 157.779 55.0554 157.419 55.4687C157.059 55.8821 156.593 56.2154 156.019 56.4687C155.446 56.7154 154.749 56.8387 153.929 56.8387H150.309V62.4587H148.569ZM150.309 55.2187H154.049C154.709 55.2187 155.233 55.0887 155.619 54.8287C156.013 54.5687 156.293 54.2421 156.459 53.8487C156.626 53.4554 156.709 53.0587 156.709 52.6587C156.709 52.2921 156.633 51.9087 156.479 51.5087C156.333 51.1087 156.066 50.7721 155.679 50.4987C155.293 50.2187 154.749 50.0787 154.049 50.0787H150.309V55.2187ZM160.167 62.4587V48.4587H165.687C166.807 48.4587 167.687 48.6521 168.327 49.0387C168.974 49.4254 169.43 49.9254 169.697 50.5387C169.97 51.1454 170.107 51.7787 170.107 52.4387C170.107 52.9921 169.997 53.5387 169.777 54.0787C169.564 54.6121 169.217 55.0821 168.737 55.4887C168.257 55.8954 167.627 56.1787 166.847 56.3387L169.847 62.4587H167.887L165.007 56.4587H161.907V62.4587H160.167ZM161.907 54.8387H165.727C166.38 54.8387 166.897 54.7221 167.277 54.4887C167.664 54.2554 167.937 53.9587 168.097 53.5987C168.264 53.2387 168.347 52.8654 168.347 52.4787C168.347 52.1321 168.27 51.7754 168.117 51.4087C167.97 51.0354 167.707 50.7221 167.327 50.4687C166.947 50.2087 166.414 50.0787 165.727 50.0787H161.907V54.8387ZM177.808 62.6987C176.708 62.6987 175.778 62.4887 175.018 62.0687C174.258 61.6421 173.648 61.0787 173.188 60.3787C172.728 59.6721 172.391 58.8921 172.178 58.0387C171.971 57.1854 171.868 56.3254 171.868 55.4587C171.868 54.5921 171.971 53.7321 172.178 52.8787C172.391 52.0254 172.728 51.2487 173.188 50.5487C173.648 49.8421 174.258 49.2787 175.018 48.8587C175.778 48.4321 176.708 48.2187 177.808 48.2187C178.914 48.2187 179.848 48.4321 180.608 48.8587C181.368 49.2787 181.978 49.8421 182.438 50.5487C182.898 51.2487 183.231 52.0254 183.438 52.8787C183.644 53.7321 183.748 54.5921 183.748 55.4587C183.748 56.3254 183.644 57.1854 183.438 58.0387C183.231 58.8921 182.898 59.6721 182.438 60.3787C181.978 61.0787 181.368 61.6421 180.608 62.0687C179.848 62.4887 178.914 62.6987 177.808 62.6987ZM177.808 61.0587C178.581 61.0587 179.231 60.8887 179.758 60.5487C180.284 60.2087 180.708 59.7621 181.028 59.2087C181.354 58.6487 181.588 58.0421 181.728 57.3887C181.874 56.7287 181.948 56.0854 181.948 55.4587C181.948 54.7721 181.874 54.0987 181.728 53.4387C181.588 52.7721 181.354 52.1687 181.028 51.6287C180.708 51.0821 180.284 50.6487 179.758 50.3287C179.231 50.0021 178.581 49.8387 177.808 49.8387C177.041 49.8387 176.394 50.0087 175.868 50.3487C175.341 50.6887 174.914 51.1387 174.588 51.6987C174.268 52.2521 174.034 52.8587 173.888 53.5187C173.741 54.1787 173.668 54.8254 173.668 55.4587C173.668 56.1454 173.741 56.8221 173.888 57.4887C174.034 58.1487 174.268 58.7487 174.588 59.2887C174.914 59.8287 175.341 60.2587 175.868 60.5787C176.394 60.8987 177.041 61.0587 177.808 61.0587ZM188.19 62.6987C187.183 62.6987 186.347 62.4821 185.68 62.0487C185.013 61.6087 184.503 60.9854 184.15 60.1787L185.59 59.4387C185.863 59.9787 186.187 60.3854 186.56 60.6587C186.94 60.9254 187.49 61.0587 188.21 61.0587C188.543 61.0587 188.867 61.0154 189.18 60.9287C189.493 60.8354 189.777 60.6754 190.03 60.4487C190.29 60.2221 190.493 59.9054 190.64 59.4987C190.793 59.0854 190.87 58.5587 190.87 57.9187V48.4587H192.61V57.8587C192.61 58.8254 192.473 59.6221 192.2 60.2487C191.933 60.8754 191.577 61.3687 191.13 61.7287C190.69 62.0821 190.213 62.3321 189.7 62.4787C189.187 62.6254 188.683 62.6987 188.19 62.6987ZM195.468 62.4587V48.4587H203.788V50.0987H197.208V54.3987H201.548V56.0387H197.208V60.7987H204.228V62.4587H195.468ZM206.304 62.4587V48.4587H208.044V55.3187L213.504 48.4587H215.464L211.604 53.2987L216.604 62.4587H214.584L210.424 54.7587L208.044 57.6787V62.4587H206.304ZM220.901 62.4587V50.1187H217.001V48.4587H226.541V50.1187H222.641V62.4587H220.901ZM52.5401 81.4587V67.4587H54.2801V74.3187L59.7401 67.4587H61.7001L57.8401 72.2987L62.8401 81.4587H60.8201L56.6601 73.7587L54.2801 76.6787V81.4587H52.5401ZM69.1554 81.6987C68.0087 81.6987 67.0654 81.4854 66.3254 81.0587C65.5854 80.6321 65.0354 80.0087 64.6754 79.1887C64.3154 78.3687 64.1354 77.3721 64.1354 76.1987V67.4587H65.8754V76.1987C65.8754 77.4121 66.1287 78.3587 66.6354 79.0387C67.1487 79.7187 67.9887 80.0587 69.1554 80.0587C69.8954 80.0587 70.5087 79.9187 70.9954 79.6387C71.4887 79.3521 71.8554 78.9254 72.0954 78.3587C72.3354 77.7854 72.4554 77.0654 72.4554 76.1987V67.4587H74.1954V76.1987C74.1954 77.1054 74.0887 77.9021 73.8754 78.5887C73.6621 79.2754 73.3454 79.8521 72.9254 80.3187C72.5054 80.7787 71.9787 81.1254 71.3454 81.3587C70.7187 81.5854 69.9887 81.6987 69.1554 81.6987ZM77.0245 81.4587V67.4587H82.3845C83.5178 67.4587 84.4145 67.6654 85.0745 68.0787C85.7345 68.4854 86.2045 69.0121 86.4845 69.6587C86.7645 70.2987 86.9045 70.9654 86.9045 71.6587C86.9045 72.1387 86.8211 72.6254 86.6545 73.1187C86.4945 73.6054 86.2345 74.0554 85.8745 74.4687C85.5145 74.8821 85.0478 75.2154 84.4745 75.4687C83.9011 75.7154 83.2045 75.8387 82.3845 75.8387H78.7645V81.4587H77.0245ZM78.7645 74.2187H82.5045C83.1645 74.2187 83.6878 74.0887 84.0745 73.8287C84.4678 73.5687 84.7478 73.2421 84.9145 72.8487C85.0811 72.4554 85.1645 72.0587 85.1645 71.6587C85.1645 71.2921 85.0878 70.9087 84.9345 70.5087C84.7878 70.1087 84.5211 69.7721 84.1345 69.4987C83.7478 69.2187 83.2045 69.0787 82.5045 69.0787H78.7645V74.2187ZM88.6221 81.4587V67.4587H90.3821L96.5821 77.4187C96.6821 77.5854 96.7788 77.7521 96.8721 77.9187C96.9654 78.0854 97.0621 78.2654 97.1621 78.4587C97.1554 78.2854 97.1454 78.1121 97.1321 77.9387C97.1254 77.7654 97.1221 77.5987 97.1221 77.4387V67.4587H98.8621V81.4587H97.1821L90.8821 71.4587C90.7954 71.3054 90.7021 71.1454 90.6021 70.9787C90.5088 70.8121 90.4154 70.6454 90.3221 70.4787C90.3354 70.6254 90.3454 70.7854 90.3521 70.9587C90.3588 71.1321 90.3621 71.2987 90.3621 71.4587V81.4587H88.6221ZM104.227 81.6987C103.22 81.6987 102.384 81.4821 101.717 81.0487C101.05 80.6087 100.54 79.9854 100.187 79.1787L101.627 78.4387C101.9 78.9787 102.224 79.3854 102.597 79.6587C102.977 79.9254 103.527 80.0587 104.247 80.0587C104.58 80.0587 104.904 80.0154 105.217 79.9287C105.53 79.8354 105.814 79.6754 106.067 79.4487C106.327 79.2221 106.53 78.9054 106.677 78.4987C106.83 78.0854 106.907 77.5587 106.907 76.9187V67.4587H108.647V76.8587C108.647 77.8254 108.51 78.6221 108.237 79.2487C107.97 79.8754 107.614 80.3687 107.167 80.7287C106.727 81.0821 106.25 81.3321 105.737 81.4787C105.224 81.6254 104.72 81.6987 104.227 81.6987ZM116.845 81.6987C115.745 81.6987 114.815 81.4887 114.055 81.0687C113.295 80.6421 112.685 80.0787 112.225 79.3787C111.765 78.6721 111.428 77.8921 111.215 77.0387C111.008 76.1854 110.905 75.3254 110.905 74.4587C110.905 73.5921 111.008 72.7321 111.215 71.8787C111.428 71.0254 111.765 70.2487 112.225 69.5487C112.685 68.8421 113.295 68.2787 114.055 67.8587C114.815 67.4321 115.745 67.2187 116.845 67.2187C117.952 67.2187 118.885 67.4321 119.645 67.8587C120.405 68.2787 121.015 68.8421 121.475 69.5487C121.935 70.2487 122.268 71.0254 122.475 71.8787C122.682 72.7321 122.785 73.5921 122.785 74.4587C122.785 75.3254 122.682 76.1854 122.475 77.0387C122.268 77.8921 121.935 78.6721 121.475 79.3787C121.015 80.0787 120.405 80.6421 119.645 81.0687C118.885 81.4887 117.952 81.6987 116.845 81.6987ZM116.845 80.0587C117.618 80.0587 118.268 79.8887 118.795 79.5487C119.322 79.2087 119.745 78.7621 120.065 78.2087C120.392 77.6487 120.625 77.0421 120.765 76.3887C120.912 75.7287 120.985 75.0854 120.985 74.4587C120.985 73.7721 120.912 73.0987 120.765 72.4387C120.625 71.7721 120.392 71.1687 120.065 70.6287C119.745 70.0821 119.322 69.6487 118.795 69.3287C118.268 69.0021 117.618 68.8387 116.845 68.8387C116.078 68.8387 115.432 69.0087 114.905 69.3487C114.378 69.6887 113.952 70.1387 113.625 70.6987C113.305 71.2521 113.072 71.8587 112.925 72.5187C112.778 73.1787 112.705 73.8254 112.705 74.4587C112.705 75.1454 112.778 75.8221 112.925 76.4887C113.072 77.1487 113.305 77.7487 113.625 78.2887C113.952 78.8287 114.378 79.2587 114.905 79.5787C115.432 79.8987 116.078 80.0587 116.845 80.0587ZM131.097 81.6987L127.297 72.8587C127.197 72.6254 127.09 72.3721 126.977 72.0987C126.87 71.8187 126.777 71.5654 126.697 71.3387C126.717 71.5187 126.73 71.7587 126.737 72.0587C126.75 72.3521 126.757 72.6187 126.757 72.8587V81.4587H125.017V67.4587H126.657L130.737 76.8787C130.797 77.0254 130.857 77.1787 130.917 77.3387C130.977 77.4987 131.037 77.6587 131.097 77.8187C131.15 77.6654 131.207 77.5121 131.267 77.3587C131.327 77.1987 131.39 77.0387 131.457 76.8787L135.517 67.4587H137.177V81.4587H135.437V72.8587C135.437 72.6187 135.44 72.3487 135.447 72.0487C135.46 71.7421 135.47 71.4987 135.477 71.3187C135.397 71.5454 135.297 71.8054 135.177 72.0987C135.063 72.3921 134.957 72.6587 134.857 72.8987L131.097 81.6987ZM148.718 81.6987C147.571 81.6987 146.628 81.4854 145.888 81.0587C145.148 80.6321 144.598 80.0087 144.238 79.1887C143.878 78.3687 143.698 77.3721 143.698 76.1987V67.4587H145.438V76.1987C145.438 77.4121 145.691 78.3587 146.198 79.0387C146.711 79.7187 147.551 80.0587 148.718 80.0587C149.458 80.0587 150.071 79.9187 150.558 79.6387C151.051 79.3521 151.418 78.9254 151.658 78.3587C151.898 77.7854 152.018 77.0654 152.018 76.1987V67.4587H153.758V76.1987C153.758 77.1054 153.651 77.9021 153.438 78.5887C153.225 79.2754 152.908 79.8521 152.488 80.3187C152.068 80.7787 151.541 81.1254 150.908 81.3587C150.281 81.5854 149.551 81.6987 148.718 81.6987ZM156.587 81.4587V67.4587H158.327V79.7787H165.207V81.4587H156.587ZM166.17 81.4587L171.13 67.4587H172.75L177.71 81.4587H175.93L174.73 78.0387H169.17L167.99 81.4587H166.17ZM169.69 76.4987H174.19L172.39 71.3187C172.344 71.1854 172.29 71.0321 172.23 70.8587C172.177 70.6787 172.124 70.5054 172.07 70.3387C172.017 70.1654 171.977 70.0187 171.95 69.8987C171.917 70.0187 171.874 70.1654 171.82 70.3387C171.774 70.5054 171.72 70.6787 171.66 70.8587C171.607 71.0321 171.557 71.1854 171.51 71.3187L169.69 76.4987ZM178.985 81.4587V80.1187L187.105 69.1187H179.445V67.4587H189.365V68.7987L181.285 79.7987H189.365V81.4587H178.985ZM191.692 81.4587V67.4587H193.452L199.652 77.4187C199.752 77.5854 199.849 77.7521 199.942 77.9187C200.036 78.0854 200.132 78.2654 200.232 78.4587C200.226 78.2854 200.216 78.1121 200.202 77.9387C200.196 77.7654 200.192 77.5987 200.192 77.4387V67.4587H201.932V81.4587H200.252L193.952 71.4587C193.866 71.3054 193.772 71.1454 193.672 70.9787C193.579 70.8121 193.486 70.6454 193.392 70.4787C193.406 70.6254 193.416 70.7854 193.422 70.9587C193.429 71.1321 193.432 71.2987 193.432 71.4587V81.4587H191.692ZM204.774 81.4587V67.4587H206.514V81.4587H204.774ZM214.639 81.6987C213.579 81.6987 212.679 81.4921 211.939 81.0787C211.199 80.6654 210.602 80.1121 210.149 79.4187C209.695 78.7187 209.362 77.9387 209.149 77.0787C208.942 76.2187 208.839 75.3454 208.839 74.4587C208.839 73.5787 208.945 72.7121 209.159 71.8587C209.379 70.9987 209.719 70.2187 210.179 69.5187C210.639 68.8187 211.235 68.2621 211.969 67.8487C212.709 67.4287 213.599 67.2187 214.639 67.2187C215.499 67.2187 216.225 67.3421 216.819 67.5887C217.419 67.8354 217.905 68.1521 218.279 68.5387C218.659 68.9187 218.952 69.3187 219.159 69.7387L217.599 70.5387C217.379 70.2121 217.139 69.9221 216.879 69.6687C216.619 69.4087 216.309 69.2054 215.949 69.0587C215.589 68.9121 215.152 68.8387 214.639 68.8387C213.892 68.8387 213.262 69.0087 212.749 69.3487C212.235 69.6887 211.822 70.1354 211.509 70.6887C211.202 71.2421 210.979 71.8487 210.839 72.5087C210.705 73.1687 210.639 73.8187 210.639 74.4587C210.639 75.1521 210.715 75.8321 210.869 76.4987C211.022 77.1654 211.262 77.7687 211.589 78.3087C211.915 78.8421 212.329 79.2687 212.829 79.5887C213.335 79.9021 213.939 80.0587 214.639 80.0587C215.412 80.0587 216.032 79.8954 216.499 79.5687C216.965 79.2354 217.359 78.8054 217.679 78.2787L219.279 78.8787C219.039 79.3987 218.712 79.8721 218.299 80.2987C217.885 80.7254 217.375 81.0654 216.769 81.3187C216.169 81.5721 215.459 81.6987 214.639 81.6987ZM221.212 81.4587V67.4587H229.532V69.0987H222.952V73.3987H227.292V75.0387H222.952V79.7987H229.972V81.4587H221.212Z" fill="#BF2121"/>
</svg>
