<svg width="161" height="57" viewBox="0 0 161 57" fill="none" xmlns="http://www.w3.org/2000/svg">
<path d="M126.398 36.1154L124.816 37.99L124.329 37.5518L125.984 35.7259C125.716 35.4825 125.522 35.2634 125.278 35.0443L125.643 34.6791C126.276 35.2634 126.836 35.7259 127.518 36.2858L127.201 36.6997C126.958 36.505 126.69 36.3102 126.447 36.1154M123.209 31.4169L120.628 32.9263C120.726 33.0967 120.823 33.3158 120.945 33.4862L123.525 31.9768C123.404 31.7577 123.331 31.636 123.209 31.4169ZM124.864 33.827L123.477 35.0443L124.183 32.975C124.061 32.8046 123.988 32.6828 123.866 32.5124L121.359 34.2165C121.456 34.387 121.602 34.533 121.724 34.7278L123.233 33.681L122.527 35.7746C122.649 35.9207 122.771 36.1154 122.941 36.2615L125.254 34.2652C125.132 34.1192 124.962 33.9974 124.864 33.8514V33.827ZM128.273 37.5274C128.686 37.7465 129.076 37.99 129.514 38.1847L129.782 37.7465C129.173 37.4301 128.589 37.0649 128.078 36.6997L126.374 39.2072C127.007 39.6211 127.615 39.9863 128.273 40.3758L128.54 39.9376L127.177 39.1342L127.64 38.4769L128.54 39.0368L128.808 38.6229C128.516 38.4525 128.2 38.2821 127.883 38.0874L128.248 37.5761L128.273 37.5274ZM136.696 28.2034C134.334 28.2034 132.411 26.2802 132.411 23.9187C132.411 21.5573 134.334 19.634 136.696 19.634C139.057 19.634 140.981 21.5573 140.981 23.9187C140.981 26.2802 139.057 28.2034 136.696 28.2034ZM136.745 26.7914C138.303 26.7914 139.593 25.5011 139.593 23.9431C139.593 22.6528 138.692 21.5086 137.451 21.1921C137.451 21.0704 137.402 20.4618 137.402 20.4618H135.966C135.966 20.4618 135.941 21.0947 135.917 21.2408C134.724 21.606 133.921 22.6771 133.921 23.9187C133.921 25.4768 135.211 26.7671 136.745 26.7671V26.7914ZM130.464 7.7538V7.60773C130.464 6.8287 131.048 6.19574 131.827 6.1227C132.655 6.04967 133.385 6.65829 133.458 7.48601V7.60773C133.458 8.38677 132.874 9.04407 132.095 9.11711C131.291 9.19014 130.561 8.58152 130.488 7.7538H130.464ZM130.999 7.70511C131.048 8.2407 131.51 8.63021 132.022 8.58152C132.533 8.53283 132.898 8.11897 132.898 7.60773C132.898 7.60773 132.898 7.55904 132.898 7.5347C132.849 6.99911 132.387 6.6096 131.851 6.65829C131.34 6.70698 130.951 7.09649 130.975 7.60773V7.70511H130.999ZM137.231 8.4598C136.988 8.4598 136.866 8.4598 136.623 8.4598L137.378 6.90174L138.059 5.48974L138.741 5.56277L139.106 6.90174L139.593 8.70325C139.374 8.65456 139.179 8.63021 138.984 8.60587L138.814 8.04594C138.376 7.97291 137.962 7.94856 137.548 7.94856L137.28 8.4598H137.231ZM137.743 7.43732C138.059 7.43732 138.376 7.48601 138.668 7.5347L138.497 6.90174L138.303 6.26877L137.986 6.90174L137.718 7.43732H137.743ZM134.748 6.09836L135.016 8.55718L135.649 8.48414L135.406 6.04967L136.379 5.97664L136.331 5.44105C135.235 5.48974 134.797 5.53843 133.726 5.70884L133.799 6.22008L134.748 6.09836ZM134.846 39.2559L134.627 41.0818L133.75 39.0855C133.555 39.0368 133.409 38.9881 133.215 38.9638L132.533 41.9095C132.752 41.9582 132.947 41.9825 133.166 42.0312L133.531 40.2054L134.432 42.226C134.627 42.2503 134.87 42.3233 135.113 42.3233L135.43 39.2559C135.26 39.2559 135.04 39.2559 134.87 39.2559H134.846ZM152.228 32.9263L150.037 31.709L149.745 32.2203L152.374 33.681L153.396 31.8551L152.934 31.6117L152.228 32.9019V32.9263ZM148.917 33.3645L151.911 34.3383C151.911 34.3383 151.79 34.5087 151.717 34.6061C151.668 34.6791 151.595 34.7521 151.571 34.8252L151.059 34.6304L150.232 35.6529L150.524 36.1154C150.402 36.2615 150.256 36.4076 150.11 36.5536L148.917 34.5817L148.479 33.8514L148.917 33.3401V33.3645ZM149.258 34.0461L149.623 34.6061L149.939 35.166L150.378 34.6061L150.499 34.46L149.258 34.0461ZM146.117 38.0387C146.239 38.2578 146.312 38.5256 146.312 38.7934C146.312 38.9881 146.263 39.2072 146.19 39.402C146.044 39.6698 145.85 39.9376 145.557 40.0836C144.851 40.4975 143.951 40.254 143.512 39.5237C143.512 39.475 143.464 39.4263 143.439 39.3776C143.342 39.1829 143.318 38.9638 143.293 38.769C143.293 38.2334 143.561 37.7465 144.048 37.4787C144.754 37.0649 145.679 37.3083 146.117 38.0143V38.0387ZM145.776 38.7934C145.776 38.6229 145.728 38.4525 145.655 38.3065C145.411 37.8439 144.827 37.6978 144.364 37.9656C144.048 38.1361 143.878 38.4769 143.878 38.8177C143.878 38.9638 143.926 39.1585 144.024 39.3046C144.024 39.3533 144.072 39.402 144.121 39.4507C144.413 39.7915 144.924 39.8645 145.314 39.6454C145.411 39.5967 145.509 39.5237 145.582 39.4507C145.728 39.2803 145.801 39.0368 145.801 38.8177L145.776 38.7934ZM147.213 35.2147L148.454 36.5536L146.361 35.945C146.19 36.0667 146.069 36.1154 145.923 36.2615L147.748 38.696C147.894 38.5743 148.065 38.4282 148.211 38.3065L147.115 36.8458L149.233 37.4787C149.38 37.357 149.574 37.2109 149.745 37.0405L147.627 34.8252C147.627 34.8252 147.383 35.1173 147.237 35.239L147.213 35.2147ZM160.602 23.9431C160.602 24.2109 160.602 24.503 160.554 24.7221V24.7708L160.481 24.8195C159.458 25.4281 158.168 25.7689 156.853 25.7933C156.805 25.9637 156.683 27.1322 156.659 27.327C157.876 27.6678 159.069 28.3495 159.896 29.2015V29.2502L159.921 29.2989C159.848 29.7615 159.702 30.3944 159.507 30.8083V30.8813H159.434C158.29 31.2221 156.926 31.1978 155.66 30.8813C155.612 31.0274 155.149 32.1472 155.101 32.2933C156.196 32.975 157.17 33.9488 157.73 34.9712V35.0199V35.093C157.559 35.5068 157.243 36.0911 156.951 36.4319V36.4806H156.853C155.685 36.4806 154.37 36.1398 153.202 35.5068C153.104 35.6529 152.35 36.651 152.228 36.7971C153.129 37.7222 153.81 38.9151 154.102 40.0593V40.1323V40.181C153.835 40.5218 153.348 41.0087 153.007 41.2765L152.958 41.3252H152.885C151.765 41.0087 150.572 40.3271 149.623 39.4263C149.477 39.5237 148.527 40.2784 148.406 40.3758C149.014 41.4956 149.38 42.7616 149.38 43.9301V44.1005L149.306 44.1492C148.966 44.4413 148.381 44.7578 147.968 44.9282H147.919H147.846C146.823 44.344 145.85 43.3702 145.192 42.2747C145.046 42.3477 143.878 42.8346 143.732 42.9076C143.878 43.5162 143.975 44.1735 143.999 44.8065C143.999 45.4638 143.878 46.0968 143.732 46.6811V46.7298L143.658 46.7541C143.269 46.9002 142.612 47.0706 142.173 47.1436H142.1L142.052 47.1193C141.175 46.2915 140.494 45.0987 140.153 43.8571C140.007 43.8571 138.814 44.0275 138.643 44.0762C138.643 45.3664 138.254 46.6811 137.645 47.7035V47.7522H137.548C137.134 47.8009 136.477 47.8009 136.014 47.7522H135.966L135.917 47.6792C135.333 46.6567 134.967 45.3421 134.943 44.0518C134.773 44.0518 133.507 43.8571 133.336 43.8327C132.995 45.0743 132.314 46.2429 131.462 47.0949L131.413 47.1436H131.34C130.877 47.0706 130.269 46.8758 129.855 46.7054H129.806V46.6324C129.636 46.0481 129.539 45.3908 129.539 44.7578C129.539 44.1249 129.636 43.4919 129.782 42.8833C129.612 42.8102 128.54 42.372 128.37 42.299C127.688 43.4189 126.715 44.3927 125.692 44.9769H125.643H125.57C125.156 44.7822 124.597 44.4657 124.231 44.1979L124.183 44.1492V44.0275C124.183 42.8589 124.548 41.5687 125.156 40.4488C125.035 40.3514 124.012 39.5724 123.866 39.475C122.941 40.3758 121.748 41.0574 120.604 41.3496H120.555L120.482 41.3252C120.141 41.0331 119.679 40.5949 119.411 40.2297L119.362 40.1567V40.0836C119.679 38.9151 120.361 37.7465 121.261 36.8458C121.164 36.6997 120.385 35.7016 120.288 35.5555C119.143 36.1885 117.829 36.5536 116.66 36.5293H116.587L116.538 36.4806C116.271 36.1154 115.93 35.5312 115.759 35.1173V35.0443V34.9956C116.344 33.9488 117.317 32.9993 118.413 32.342C118.34 32.1716 117.877 31.0517 117.804 30.9057C116.563 31.2221 115.199 31.2221 114.031 30.9057H113.982L113.958 30.8326C113.812 30.4431 113.641 29.7858 113.568 29.3476V29.2746V29.2259C114.396 28.3738 115.589 27.7165 116.831 27.327C116.831 27.1566 116.636 25.8906 116.611 25.7202C115.297 25.7202 113.982 25.3551 112.96 24.7464H112.911V24.6491C112.887 24.43 112.887 24.1622 112.887 23.87C112.887 23.5779 112.887 23.3344 112.911 23.091V23.018L112.96 22.9936C113.982 22.385 115.297 22.0442 116.611 22.0198C116.611 21.8494 116.782 20.6078 116.806 20.4618C115.565 20.0966 114.372 19.4149 113.52 18.5872V18.5385V18.4655C113.568 18.0029 113.763 17.37 113.934 16.9805V16.9318H114.007C115.126 16.5909 116.514 16.6153 117.78 16.9318C117.853 16.7857 118.316 15.6658 118.389 15.4954C117.269 14.8138 116.295 13.8643 115.711 12.8175V12.7445V12.6714C115.905 12.2576 116.222 11.6977 116.49 11.3325L116.538 11.2838H116.611C117.804 11.2838 119.119 11.6246 120.239 12.2576C120.336 12.1359 121.115 11.089 121.213 10.943C120.312 9.99352 119.63 8.82497 119.338 7.68077V7.63208V7.58339C119.63 7.21822 120.093 6.75567 120.458 6.48788L120.507 6.43919H120.555C121.724 6.75567 122.892 7.43732 123.818 8.33808C123.964 8.2407 124.864 7.5347 125.01 7.41298C124.377 6.31746 124.037 5.02719 124.037 3.85864V3.68823L124.085 3.63954C124.426 3.37175 125.01 3.03092 125.424 2.86051H125.473H125.546C126.568 3.44478 127.542 4.41857 128.2 5.51409C128.37 5.44105 129.563 4.92981 129.709 4.85678C129.563 4.24816 129.465 3.59085 129.465 2.95789C129.465 2.30058 129.539 1.66762 129.733 1.08334V1.01031H129.806C130.196 0.839894 130.829 0.669481 131.291 0.620791H131.364L131.413 0.645136C132.265 1.47286 132.947 2.66575 133.312 3.90733C133.482 3.90733 134.748 3.73692 134.919 3.71257C134.943 2.4223 135.308 1.10769 135.917 0.0852066V0.0365171H136.014C136.452 -0.0121724 137.134 -0.0121724 137.572 0.0365171H137.621L137.67 0.109551C138.278 1.13203 138.643 2.44665 138.643 3.73692C138.838 3.78561 140.055 3.93168 140.226 3.95602C140.591 2.71444 141.273 1.52155 142.125 0.693825V0.645136H142.222C142.685 0.693825 143.318 0.864239 143.732 1.059H143.78V1.15638C143.951 1.74065 144.048 2.34927 144.048 3.00658C144.048 3.63954 143.951 4.29685 143.78 4.90547C143.926 4.9785 145.119 5.4654 145.29 5.53843C145.947 4.44292 146.896 3.46913 147.943 2.88485H147.992H148.065C148.479 3.05527 149.039 3.39609 149.404 3.66388H149.453V3.85864C149.453 5.02719 149.087 6.31746 148.479 7.41298C148.625 7.51035 149.599 8.28939 149.745 8.41111C150.67 7.51036 151.838 6.8287 153.007 6.53657H153.056L153.104 6.56091C153.445 6.8287 153.932 7.3156 154.2 7.65642L154.248 7.70511V7.7538C153.932 8.92235 153.226 10.0909 152.35 11.016C152.447 11.1621 153.202 12.1359 153.299 12.2819C154.443 11.6733 155.758 11.3081 156.951 11.3325H156.999L157.048 11.3812C157.34 11.7463 157.657 12.3306 157.827 12.7201V12.7932V12.8419C157.243 13.8643 156.269 14.8138 155.149 15.4954C155.222 15.6658 155.66 16.7857 155.758 16.9318C156.999 16.6153 158.363 16.6153 159.507 16.9318H159.58L159.604 17.0048C159.75 17.3943 159.945 18.0516 159.994 18.5142V18.5629L159.969 18.6116C159.142 19.4636 157.949 20.1453 156.707 20.5105C156.732 20.6809 156.878 21.8981 156.926 22.0685C158.241 22.0929 159.531 22.4337 160.554 23.0423L160.627 23.091V23.1397C160.651 23.3588 160.675 23.6266 160.675 23.9187L160.602 23.9431ZM124.694 10.0179L126.666 12.2089C126.934 12.501 127.25 12.4767 127.64 12.1602C130.123 10.2126 133.312 9.06842 136.696 9.06842C140.08 9.06842 143.269 10.2126 145.776 12.1602C146.166 12.4523 146.458 12.501 146.75 12.2089L148.722 10.0179C148.941 9.77442 148.941 9.43359 148.527 9.09276C145.241 6.53657 141.175 4.95416 136.72 4.95416C132.265 4.95416 128.151 6.53657 124.913 9.11711C124.499 9.45793 124.523 9.79876 124.743 10.0422L124.694 10.0179ZM124.84 19.1958C124.621 19.0498 124.402 18.9037 124.207 18.9767C124.061 19.0254 123.939 19.1715 123.866 19.4393C122.941 22.6041 122.941 25.282 123.866 28.3982C123.915 28.5929 123.988 28.812 124.183 28.8607C124.329 28.9094 124.548 28.8607 124.84 28.6659L130.926 24.5273C131.145 24.3813 131.291 24.1622 131.291 23.9431C131.291 23.6996 131.145 23.5049 130.926 23.3344L124.84 19.1958ZM126.155 15.5685C126.179 15.7876 126.422 15.9093 126.666 16.0067L133.288 19.2202C133.555 19.3419 133.799 19.3419 133.994 19.2202C134.188 19.0985 134.31 18.8794 134.31 18.6116L134.846 11.2594C134.87 10.8943 134.846 10.6995 134.7 10.5778C134.554 10.4561 134.359 10.4804 134.164 10.5291C130.999 11.2838 128.686 12.6228 126.398 15.0085C126.228 15.2033 126.13 15.3981 126.179 15.5198L126.155 15.5685ZM126.252 32.3663C126.252 32.4881 126.349 32.6585 126.495 32.8045C128.759 35.1903 131.072 36.5293 134.261 37.284C134.456 37.357 134.651 37.3814 134.797 37.284C134.943 37.1866 134.992 36.9675 134.967 36.6023L134.432 29.2502C134.432 28.9824 134.31 28.7633 134.115 28.6416C133.921 28.5199 133.677 28.5199 133.409 28.6416L126.788 31.8551C126.544 31.9525 126.301 32.0742 126.276 32.2933C126.276 32.2933 126.276 32.342 126.276 32.3663H126.252ZM136.696 28.6659C139.325 28.6659 141.443 26.5479 141.443 23.9187C141.443 21.2895 139.325 19.1715 136.696 19.1715C134.091 19.1715 131.949 21.3138 131.949 23.9187C131.949 26.5236 134.067 28.6659 136.696 28.6659ZM138.692 37.1623C138.692 37.1623 138.984 37.284 139.276 37.2109C142.441 36.4563 144.754 35.1173 147.018 32.7315C147.164 32.5854 147.31 32.415 147.261 32.2446C147.213 32.0742 147.067 31.9281 146.75 31.7821L140.128 28.5686C139.885 28.4468 139.642 28.4468 139.422 28.5686C139.228 28.6903 139.106 28.9094 139.082 29.2015L138.546 36.5293C138.546 36.7727 138.497 37.0405 138.668 37.1866L138.692 37.1623ZM148.576 28.6173C148.771 28.739 149.014 28.9094 149.209 28.8364C149.355 28.7877 149.477 28.6416 149.55 28.3495C150.475 25.209 150.475 22.5067 149.55 19.4149C149.501 19.2202 149.404 19.0254 149.233 18.9524C149.063 18.9037 148.868 18.9524 148.576 19.1471L142.49 23.2858C142.246 23.4318 142.125 23.6509 142.125 23.87C142.125 24.0891 142.246 24.3082 142.49 24.4543L148.576 28.5929V28.6173ZM147.237 15.4467C147.237 15.325 147.164 15.1546 146.994 14.9842C144.73 12.5984 142.417 11.2594 139.228 10.5048C139.057 10.4561 138.838 10.4074 138.692 10.5291C138.546 10.6508 138.497 10.8699 138.546 11.1864L139.082 18.5385C139.082 18.8063 139.228 19.0498 139.422 19.1471C139.617 19.2689 139.861 19.2445 140.128 19.1228L146.75 15.9336C146.969 15.8363 147.213 15.7145 147.237 15.4954C147.237 15.4954 147.237 15.4467 147.237 15.4224V15.4467ZM118.949 28.5929L121.773 27.7652C122.04 27.6922 122.259 27.4244 122.235 27.0592C121.213 21.8007 122.503 17.5404 125.595 14.1321C125.911 13.913 125.936 13.4505 125.643 13.134L123.598 11.0647C123.404 10.8456 123.039 10.8456 122.722 11.1621C118.803 15.3007 116.806 21.6547 118.267 28.1304C118.34 28.4468 118.583 28.6659 118.973 28.5686L118.949 28.5929ZM154.005 30.1023L151.181 29.1285C151.035 29.0798 150.645 29.0798 150.451 29.5667C148.162 35.0443 142.855 38.7934 136.696 38.7934C130.537 38.7934 125.108 34.9469 122.917 29.4693C122.746 29.0555 122.357 29.0555 122.211 29.1041L119.387 30.0779C119.07 30.1753 118.9 30.4675 119.046 30.857C121.821 37.9169 128.686 42.8833 136.672 42.8833C144.657 42.8833 151.546 37.8683 154.321 30.8326C154.468 30.4675 154.297 30.1997 154.005 30.1023ZM150.743 11.1621C150.475 10.8212 150.012 10.8699 149.866 11.1134L147.821 13.1583C147.529 13.4748 147.554 13.9374 147.87 14.1565C150.962 17.5647 152.252 21.8251 151.23 27.0835C151.205 27.4244 151.424 27.6922 151.692 27.7895L154.516 28.6173C154.881 28.7146 155.125 28.4955 155.222 28.179C156.683 21.7033 154.687 15.325 150.743 11.1864V11.1621ZM144.17 10.383L144.827 9.14145L146.58 8.33808C146.409 8.19201 146.19 8.11897 146.02 7.99725L144.803 8.55718L144.584 7.24256C144.316 7.12084 144.17 7.07215 143.926 6.97477L144.267 8.87366L143.61 10.1152L144.17 10.4317V10.383ZM140.859 38.8177C139.982 39.0125 139.301 39.1585 138.449 39.3046L138.522 39.8158C138.838 39.7672 139.13 39.7185 139.471 39.6941L139.909 42.1286L140.567 42.0069L140.031 39.5724C140.372 39.475 140.664 39.402 141.005 39.3289L140.859 38.842V38.8177ZM132.265 39.2316V39.402C132.216 39.7915 131.949 40.2054 131.51 40.254L131.608 41.666C131.413 41.6174 131.17 41.5443 130.951 41.4713V40.1567L130.342 39.8889L129.855 41.0574C129.66 40.9844 129.465 40.9357 129.271 40.8383L129.879 39.4263L129.952 39.2559L130.439 38.0874L131.778 38.6229C132.07 38.7203 132.216 38.9881 132.241 39.2559L132.265 39.2316ZM131.705 39.2316C131.705 39.2316 131.657 39.0855 131.559 39.0368L130.804 38.769L130.634 39.2559L130.585 39.4263L131.267 39.6941C131.462 39.7671 131.632 39.5967 131.705 39.4263C131.705 39.3776 131.73 39.3046 131.705 39.2559V39.2316ZM140.859 8.99538C140.615 8.92235 140.445 8.89801 140.177 8.82497L140.664 7.16953L141.029 5.97664C141.54 6.09836 142.027 6.26877 142.539 6.43919C142.806 6.53657 142.977 6.8287 143.001 7.16953C143.001 7.63208 142.782 8.11897 142.344 8.21635L142.514 9.55531C142.295 9.45793 142.149 9.40925 141.906 9.31187L141.76 8.14332L141.175 7.97291L140.908 9.01973L140.859 8.99538ZM141.273 7.43732L141.954 7.65642C142.149 7.70511 142.368 7.41298 142.368 7.16953C142.368 7.0478 142.32 6.95043 142.173 6.90174C141.93 6.80436 141.76 6.75567 141.492 6.68263L141.346 7.14518L141.273 7.41298V7.43732ZM137.986 40.6679L138.643 42.2503C138.424 42.2503 138.23 42.2747 138.035 42.299L137.84 41.7878L136.55 41.8365L136.404 42.372C136.185 42.372 136.014 42.372 135.795 42.372L136.355 40.6922L136.745 39.4263V39.3776L137.426 39.3533V39.4263L137.986 40.6679ZM137.597 41.2522L137.353 40.6679L137.11 40.0349L136.915 40.6679L136.72 41.2765H137.597V41.2522ZM141.589 38.5499L142.587 41.3982C142.782 41.3252 142.977 41.2765 143.196 41.1791L142.222 38.3552C141.954 38.4525 141.833 38.4769 141.589 38.5499ZM127.128 8.55718L126.958 8.26504C127.396 7.99725 127.859 7.7538 128.321 7.51035C128.857 7.21822 129.612 7.92422 129.563 8.55718C129.563 8.6789 129.514 8.77628 129.465 8.87366L130.561 9.67704C130.342 9.77442 130.196 9.84745 129.952 9.96917L129.003 9.26318L128.467 9.55531L129.027 10.4804C128.808 10.6265 128.686 10.6995 128.419 10.8456L127.128 8.55718ZM127.786 8.43546L127.859 8.58152L128.151 9.11711L128.784 8.77628C128.784 8.77628 128.881 8.6789 128.881 8.58152C128.881 8.31373 128.686 7.92422 128.394 8.09463C128.175 8.21635 128.029 8.31373 127.761 8.43546H127.786Z" fill="black"/>
<path d="M8.08246 43.0294C7.37646 42.6642 6.37831 42.5425 5.59928 42.5425C2.7266 42.5425 1.09551 44.5874 1.09551 47.3384C1.09551 50.0893 2.67791 52.1343 5.59928 52.1343C6.32962 52.1343 7.44949 52.0369 8.08246 51.6474L8.15549 52.5968C7.54687 52.962 6.30528 53.0837 5.59928 53.0837C2.09364 53.0837 0 50.771 0 47.3384C0 43.9058 2.16667 41.593 5.59928 41.593C6.25659 41.593 7.57121 41.7147 8.15549 42.0069L8.08246 43.0294Z" fill="black"/>
<path d="M10.2481 40.9602H9.25V52.9135H10.2481V40.9602Z" fill="black"/>
<path d="M18.2828 50.9898C18.2828 51.6228 18.2828 52.2558 18.3558 52.9131H17.382V51.4524H17.3577C17.0168 52.1827 16.4082 53.0835 14.7284 53.0835C12.7322 53.0835 11.9531 51.7445 11.9531 49.9673V44.7819H12.9513V49.7239C12.9513 51.2576 13.4868 52.2314 14.8745 52.2314C16.7003 52.2314 17.2846 50.6247 17.2846 49.2613V44.7576H18.2828V50.9655V50.9898Z" fill="black"/>
<path d="M20.0625 40.9602H21.0606V46.1456H21.085C21.231 45.7561 22.0344 44.5876 23.6168 44.5876C26.0026 44.5876 26.9521 46.3647 26.9521 48.8479C26.9521 51.3311 25.8322 53.1082 23.6168 53.1082C22.4483 53.1082 21.6206 52.67 21.085 51.6232H21.0606V52.9135H20.0625V40.9602ZM23.4708 45.4396C21.6449 45.4396 21.0606 47.3629 21.0606 48.8236C21.0606 50.2842 21.6936 52.2075 23.4708 52.2075C25.394 52.2075 25.8809 50.3816 25.8809 48.8236C25.8809 47.2655 25.394 45.4396 23.4708 45.4396Z" fill="black"/>
<path d="M66.4141 51.9396L72.2081 42.7373H66.5601V41.7878H73.3767V42.7373L67.607 51.9396H73.5714V52.9134H66.4141V51.9396Z" fill="black"/>
<path d="M79.1695 51.5986H79.1452C78.707 52.5724 77.5628 53.0837 76.5646 53.0837C74.2519 53.0837 73.8867 51.5256 73.8867 50.7952C73.8867 48.0686 76.7837 47.9469 78.8774 47.9469H79.0721V47.5331C79.0721 46.1454 78.5852 45.4394 77.2219 45.4394C76.3699 45.4394 75.5908 45.6342 74.8362 46.0967V45.1229C75.4691 44.8308 76.5159 44.563 77.2219 44.563C79.2182 44.563 80.0703 45.4637 80.0703 47.5817V51.1604C80.0703 51.8177 80.0703 52.3046 80.1433 52.8645H79.1452V51.5499L79.1695 51.5986ZM79.0721 48.799H78.78C77.0515 48.799 74.9822 48.9694 74.9822 50.7466C74.9822 51.8177 75.7369 52.2072 76.662 52.2072C79.0235 52.2072 79.0721 50.1623 79.0721 49.2859V48.799Z" fill="black"/>
<path d="M87.8163 52.2314C87.8163 54.4955 86.7938 56.3457 84.0185 56.3457C82.9473 56.3457 81.9735 56.0535 81.5597 55.9075L81.6327 54.9093C82.2657 55.2258 83.1421 55.4936 84.0185 55.4936C86.599 55.4936 86.8181 53.6191 86.8181 51.3307H86.7938C86.2582 52.4992 85.3574 52.9131 84.335 52.9131C81.7301 52.9131 80.9023 50.649 80.9023 48.8475C80.9023 46.3887 81.8518 44.5872 84.2376 44.5872C85.3087 44.5872 86.0147 44.7332 86.7694 45.707H86.7938V44.7819H87.7919V52.2314H87.8163ZM84.3593 52.0367C86.1851 52.0367 86.8181 50.3082 86.8181 48.8231C86.8181 46.8756 86.2338 45.4392 84.408 45.4392C82.5821 45.4392 81.9978 47.2651 81.9978 48.8231C81.9978 50.3812 82.6308 52.0367 84.335 52.0367H84.3593Z" fill="black"/>
<path d="M89.1512 46.5836C89.1512 45.6828 89.1512 45.3664 89.0781 44.7577H90.0763V46.3158H90.1006C90.4658 45.4151 91.1474 44.563 92.1942 44.563C92.4377 44.563 92.7298 44.6117 92.9002 44.6604V45.7072C92.6811 45.6342 92.4133 45.6098 92.1699 45.6098C90.5875 45.6098 90.1493 47.387 90.1493 48.8477V52.8645H89.1512V46.5593V46.5836Z" fill="black"/>
<path d="M98.7181 52.6454C98.0121 52.9376 97.1113 53.0837 96.3566 53.0837C93.6544 53.0837 92.6562 51.2578 92.6562 48.8233C92.6562 46.3888 94.0195 44.563 96.0888 44.563C98.3773 44.563 99.3267 46.4132 99.3267 48.6042V49.1155H93.7761C93.7761 50.8439 94.7012 52.2316 96.454 52.2316C97.1844 52.2316 98.2555 51.9394 98.7424 51.623V52.6454H98.7181ZM98.2068 48.2634C98.2068 46.8514 97.6226 45.4394 96.1375 45.4394C94.6525 45.4394 93.7518 46.9244 93.7518 48.2634H98.2068Z" fill="black"/>
<path d="M100.133 40.9602H101.131V46.1456H101.155C101.301 45.7561 102.105 44.5876 103.687 44.5876C106.073 44.5876 107.022 46.3647 107.022 48.8479C107.022 51.3311 105.903 53.1082 103.687 53.1082C102.519 53.1082 101.691 52.67 101.155 51.6232H101.131V52.9135H100.133V40.9602ZM103.541 45.4396C101.715 45.4396 101.131 47.3629 101.131 48.8236C101.131 50.2842 101.764 52.2075 103.541 52.2075C105.464 52.2075 105.951 50.3816 105.951 48.8236C105.951 47.2655 105.464 45.4396 103.541 45.4396Z" fill="black"/>
<path d="M35.1091 41.7878H36.1072V52.9134H35.0117V43.0294L33.2102 44.6118L32.6016 43.8815L35.1091 41.7878Z" fill="black"/>
<path d="M38.1719 51.9393L40.7281 49.1153C42.067 47.6303 43.406 45.9749 43.406 44.6359C43.406 43.4674 42.5539 42.6396 41.4584 42.6396C40.4603 42.6396 39.6569 42.9318 38.7805 43.443L38.5857 42.4449C39.3891 42.0554 40.4846 41.6902 41.3854 41.6902C43.1869 41.6902 44.5989 42.5909 44.5989 44.6116C44.5989 46.267 42.9678 48.1902 41.5315 49.7726L39.5352 51.9637H44.8667V52.9131H38.1962V51.9637L38.1719 51.9393Z" fill="black"/>
<path d="M45.1367 49.2617L50.1274 41.7878H51.5394V49.3834H53.1705V50.3328H51.5394V52.889H50.4439V50.3328H45.1367V49.2617ZM50.4439 42.8834H50.4195L46.1592 49.3834H50.4682V42.8834H50.4439Z" fill="black"/>
<path d="M53.2422 51.9393L55.7984 49.1153C57.1374 47.6303 58.4763 45.9749 58.4763 44.6359C58.4763 43.4674 57.6242 42.6396 56.5287 42.6396C55.5306 42.6396 54.7272 42.9318 53.8508 43.443L53.656 42.4449C54.4594 42.0554 55.5549 41.6902 56.4557 41.6902C58.2572 41.6902 59.6692 42.5909 59.6692 44.6116C59.6692 46.267 58.0381 48.1902 56.6018 49.7726L54.6055 51.9637H59.937V52.9131H53.2665V51.9637L53.2422 51.9393Z" fill="black"/>
<path d="M70.5761 29.4937L70.6735 31.1978C70.6735 31.4656 70.5031 31.6847 70.2597 31.7334C69.5293 31.8795 68.5555 32.0256 67.9226 32.0256C64.8064 32.0256 63.857 30.8327 63.857 26.9132V20.9244H62.6641C62.372 20.9244 62.1529 20.7053 62.1529 20.4131V18.6359C62.1529 18.3438 62.372 18.1247 62.6641 18.1247H63.857V16.0311C63.857 15.7876 64.0274 15.5929 64.2465 15.5198L66.3158 15.0086C66.4619 14.9599 66.6323 15.0086 66.754 15.106C66.8757 15.2033 66.9488 15.3494 66.9488 15.5198V18.1247H70.1136C70.4057 18.1247 70.6248 18.3682 70.6248 18.6359V20.4131C70.6248 20.7053 70.3814 20.9244 70.1136 20.9244H66.9488V26.475C66.9488 28.3982 67.0218 29.0555 68.3608 29.0555C68.872 29.0555 69.6267 29.0312 70.0406 29.0068C70.3327 29.0068 70.5761 29.2016 70.5761 29.4937ZM60.7895 24.8439C60.7895 29.7858 58.915 31.9769 54.7034 31.9769C50.4917 31.9769 48.5928 29.7615 48.5928 24.8439C48.5928 19.9262 50.4917 17.8082 54.7034 17.8082C58.915 17.8082 60.7895 20.0479 60.7895 24.8439ZM57.6491 24.8439C57.6491 21.8008 56.8214 20.6322 54.7034 20.6322C52.5854 20.6322 51.7333 21.7277 51.7333 24.8439C51.7333 27.6679 52.2202 29.1772 54.7034 29.1772C57.1865 29.1772 57.6491 27.5948 57.6491 24.8439ZM107.045 18.3438C106.947 18.2221 106.801 18.1491 106.631 18.1491H104.61C104.367 18.1491 104.172 18.2951 104.099 18.5386L101.397 28.6903H101.177L98.4752 18.5386C98.4265 18.3195 98.2074 18.1491 97.9883 18.1491H95.9921C95.8216 18.1491 95.6756 18.2221 95.5782 18.3438C95.4808 18.4655 95.4565 18.6359 95.4808 18.782L98.4509 30.1754C98.5969 30.7353 99.1082 31.6847 100.155 31.6847H100.739C100.691 31.8795 100.642 32.0742 100.569 32.2447V32.342C100.374 32.8776 100.131 33.6567 98.67 33.6567L96.1138 33.5106C95.9677 33.5106 95.8217 33.5593 95.7243 33.6567C95.6269 33.754 95.5539 33.9001 95.5782 34.0462L95.6269 35.3851C95.6269 35.6042 95.7973 35.799 96.0164 35.872C96.7711 36.0668 98.2074 36.2859 99.4003 36.3346C99.449 36.3346 99.522 36.3346 99.5707 36.3346C101.518 36.3346 102.833 35.093 103.49 32.6098C104.269 29.7128 105.219 26.0124 105.925 23.2858C106.241 22.0686 106.509 21.0217 106.704 20.267L107.093 18.782C107.142 18.6359 107.093 18.4655 106.996 18.3438H107.045ZM46.7183 30.9787C46.7913 31.1491 46.767 31.3196 46.6696 31.4656C46.5722 31.6117 46.4018 31.7091 46.2314 31.7091H43.8213C43.6265 31.7091 43.4318 31.5874 43.3587 31.3926L40.2669 24.4787C38.7332 24.4787 37.4186 24.3813 36.6883 24.3326V31.1978C36.6883 31.49 36.4691 31.7091 36.177 31.7091H34.0347C33.7425 31.7091 33.5234 31.49 33.5234 31.1978V13.8157C33.5234 13.5479 33.7182 13.3288 33.986 13.3044C36.737 12.988 38.9523 12.9636 39.7557 12.9636C40.0478 12.9636 40.1939 12.9636 40.1939 12.9636C45.4767 12.9636 46.5966 16.0798 46.5966 18.709C46.5966 20.9 45.5497 22.4824 43.4074 23.5292L46.7183 30.9787ZM40.1939 15.9337H39.074C37.8081 15.9337 37.0778 16.0311 36.7369 16.1041V21.4599C37.3456 21.5086 38.5141 21.5573 40.0722 21.533C42.0928 21.533 43.3344 20.4375 43.3344 18.7333C43.3344 17.37 42.531 15.9093 40.2182 15.9093L40.1939 15.9337ZM83.2111 22.4094V31.3926C83.2111 31.5387 83.138 31.6847 83.0406 31.7821C82.9189 31.8795 82.7729 31.9282 82.6268 31.9038C81.58 31.7578 81.0687 31.4413 80.5818 31.0518C80.5818 31.0518 78.2447 32.0012 76.1511 32.0012C73.6436 32.0012 72.2072 30.4188 72.2072 27.6435C72.2072 24.8682 73.5219 23.7483 76.7597 23.5049L80.1193 23.2371V22.4337C80.1193 21.3869 79.5107 20.8026 78.4395 20.8026C76.9545 20.8026 74.8608 20.973 73.741 21.0704C73.5949 21.0704 73.4488 21.0461 73.3514 20.9487C73.2541 20.8513 73.181 20.7296 73.181 20.5835L73.108 18.8551C73.108 18.5873 73.2784 18.3682 73.5462 18.3195C74.5443 18.1734 77.0518 17.7839 78.6099 17.7839C81.7747 17.7839 83.2354 19.2446 83.2354 22.385L83.2111 22.4094ZM77.1249 25.8176C75.9076 25.9394 75.3234 26.475 75.3234 27.5461C75.3234 28.2034 75.4938 29.3233 76.711 29.3233C78.1474 29.3233 80.0949 28.7877 80.1193 28.7877V25.6716L77.1249 25.842V25.8176ZM93.2655 18.0273C91.9021 18.1004 90.5388 18.9037 89.7111 19.488V18.6359C89.7111 18.3438 89.4677 18.1247 89.1999 18.1247H87.1306C86.8384 18.1247 86.6193 18.3682 86.6193 18.6359V31.1735C86.6193 31.4656 86.8628 31.6847 87.1306 31.6847H89.1999C89.492 31.6847 89.7111 31.4656 89.7111 31.1735V22.5068C90.1737 22.1172 91.6344 21.0461 93.3385 20.8757C93.6063 20.8757 93.801 20.6322 93.801 20.3644V18.5386C93.801 18.3925 93.7524 18.2708 93.6306 18.1734C93.5333 18.076 93.3872 18.0273 93.2411 18.0273H93.2655Z" fill="black"/>
</svg>
